<?xml version="1.0" encoding="UTF-8" standalone="no"?>
<!-- Created with Inkscape (http://www.inkscape.org/) -->

<svg
   version="1.1"
   id="svg1"
   width="304.25067"
   height="152.57066"
   viewBox="0 0 304.25067 152.57066"
   xmlns="http://www.w3.org/2000/svg"
   xmlns:svg="http://www.w3.org/2000/svg">
  <defs
     id="defs1" />
  <g
     id="g1">
    <path
       id="path1"
       d="m 7.1028281,-5.436625 c 0.082031,-0.1992188 0.140625,-0.3164063 1.0546875,-0.3164063 v -0.609375 c -0.4804687,0.023437 -0.5390625,0.023437 -1.125,0.023437 -0.3867187,0 -0.421875,0 -1.2421875,-0.023437 v 0.609375 c 0.023437,0 0.6914063,0 0.6914063,0.1875 0,0.046875 -0.035156,0.1289063 -0.058594,0.1757813 l -1.675781,3.609375 -1.8398438,-3.9726563 h 0.796875 v -0.609375 c -0.3515625,0.023437 -1.3242187,0.023437 -1.7226562,0.023437 -0.421875,0 -1.26562502,0 -1.64062502,-0.023437 v 0.609375 H 1.2668906 L 3.9153281,8.75e-4 C 3.8450156,0.17665625 3.6457969,0.5868125 3.5754844,0.76259375 3.2707969,1.407125 2.8137656,2.3915 1.8059531,2.3915 c -0.058594,0 -0.2226562,0 -0.3867187,-0.082031 0.035156,-0.011719 0.4570312,-0.1875 0.4570312,-0.7265625 0,-0.4804687 -0.3398437,-0.77343745 -0.7734375,-0.77343745 -0.44531247,0 -0.78515622,0.29296875 -0.78515622,0.78515625 0,0.6679687 0.6328125,1.2773437 1.48828122,1.2773437 1.1835938,0 1.9570313,-1.0664062 2.2382813,-1.6992187 z m 0,0"
       style="fill:#000000;fill-opacity:1;fill-rule:nonzero;stroke:none"
       aria-label="y"
       transform="matrix(1.3333333,0,0,1.3333333,4.428,13.061333)" />
    <path
       id="path2"
       d="m 9.6806719,-4.6535234 c 0.1992187,0 0.4570311,0 0.4570311,-0.2578125 0,-0.2695313 -0.2343749,-0.2695313 -0.4570311,-0.2695313 H 1.2314531 c -0.1992187,0 -0.45703122,0 -0.45703122,0.2578125 0,0.2695313 0.24609372,0.2695313 0.45703122,0.2695313 z m 0,2.671875 c 0.1992187,0 0.4570311,0 0.4570311,-0.2578125 0,-0.2695313 -0.2343749,-0.2695313 -0.4570311,-0.2695313 H 1.2314531 c -0.1992187,0 -0.45703122,0 -0.45703122,0.2578125 0,0.2695313 0.24609372,0.2695313 0.45703122,0.2695313 z m 0,0"
       style="fill:#000000;fill-opacity:1;fill-rule:nonzero;stroke:none"
       aria-label="="
       transform="matrix(1.3333333,0,0,1.3333333,63.444,14.122667)" />
    <path
       id="path3"
       d="m 2.0623047,-0.31614063 c 0.3632812,0.328125 0.890625,0.45703125 1.3828125,0.45703125 0.9140625,0 1.546875,-0.609375 1.875,-1.0546875 0.140625,0.76171875 0.75,1.0546875 1.2539062,1.0546875 0.421875,0 0.7734375,-0.2578125 1.03125,-0.7734375 0.2226563,-0.48046872 0.421875,-1.35937502 0.421875,-1.41796872 0,-0.070312 -0.046875,-0.1289063 -0.140625,-0.1289063 -0.1289062,0 -0.140625,0.070312 -0.1992187,0.28125 -0.2109375,0.8554688 -0.4921875,1.75781252 -1.078125,1.75781252 -0.4101563,0 -0.4453125,-0.375 -0.4453125,-0.66796875 0,-0.32812497 0.1289062,-0.84374997 0.234375,-1.26562497 l 0.3984375,-1.5585938 c 0.058594,-0.2695312 0.2226562,-0.9140625 0.2929687,-1.171875 0.082031,-0.3398437 0.234375,-0.9609375 0.234375,-1.0195312 0,-0.2109375 -0.1640625,-0.3632813 -0.3867187,-0.3632813 -0.1289063,0 -0.421875,0.058594 -0.5390625,0.4921875 l -1.0078125,3.984375 c -0.070312,0.2929688 -0.070312,0.3164063 -0.2578125,0.5507813 -0.1640625,0.24609372 -0.7265625,1.01953122 -1.6289063,1.01953122 -0.8085937,0 -1.0664062,-0.5859375 -1.0664062,-1.26562502 0,-0.4101562 0.1289062,-0.9140625 0.1875,-1.1601562 l 0.6445312,-2.578125 c 0.070312,-0.28125 0.1875,-0.7382813 0.1875,-0.8203125 0,-0.234375 -0.1875,-0.3632813 -0.375,-0.3632813 -0.1289062,0 -0.4453125,0.046875 -0.5625,0.5039063 L 0.44511719,2.4846406 c -0.0117188,0.070312 -0.046875,0.1523438 -0.046875,0.2460938 0,0.2109375 0.17578125,0.3515625 0.38671875,0.3515625 0.42187496,0 0.50390626,-0.328125 0.60937496,-0.7265625 z m 0,0"
       style="fill:#000000;fill-opacity:1;fill-rule:nonzero;stroke:none"
       aria-label="µ"
       transform="matrix(1.3333333,0,0,1.3333333,125.56667,12.929333)" />
    <path
       id="path4"
       d="m 5.7177891,-3.3165625 h 3.9609375 c 0.1992187,0 0.4570314,0 0.4570314,-0.2578125 0,-0.2695313 -0.2343752,-0.2695313 -0.4570314,-0.2695313 H 5.7177891 v -3.9609375 c 0,-0.1992187 0,-0.4570312 -0.2578125,-0.4570312 -0.2695313,0 -0.2695313,0.2460937 -0.2695313,0.4570312 v 3.9609375 H 1.2295078 c -0.1992187,0 -0.45703124,0 -0.45703124,0.2578125 0,0.2695313 0.24609374,0.2695313 0.45703124,0.2695313 H 5.1904453 V 0.644375 c 0,0.19921875 0,0.4570312 0.2578125,0.4570312 0.2695313,0 0.2695313,-0.2460937 0.2695313,-0.4570312 z m 0,0"
       style="fill:#000000;fill-opacity:1;fill-rule:nonzero;stroke:none"
       aria-label="+"
       transform="matrix(1.3333333,0,0,1.3333333,184.388,15.453333)" />
    <path
       id="path5"
       d="m 6.47925,-3.175375 c 0.328125,0 0.421875,0 0.421875,-0.3515625 0,-0.4335938 -0.1054687,-1.5117188 -0.7617187,-2.1796875 -0.609375,-0.609375 -1.40625,-0.7851563 -2.2382813,-0.7851563 -2.2382812,0 -3.45703125,1.453125 -3.45703125,3.2695313 0,2.0039062 1.47656255,3.3046875 3.64453125,3.3046875 2.1679688,0 2.8125,-1.5117188 2.8125,-1.7578125 0,-0.2226563 -0.2226562,-0.2226563 -0.3046875,-0.2226563 -0.234375,0 -0.2460937,0.046875 -0.328125,0.234375 -0.375,0.93750005 -1.3242187,1.2304688 -2.0039062,1.2304688 -2.0859375,0 -2.0976563,-1.9335938 -2.0976563,-2.7421875 z M 2.16675,-3.5855313 C 2.190187,-4.1714688 2.201906,-4.7339688 2.5065938,-5.2495938 2.776125,-5.706625 3.2800313,-6.0230313 3.901125,-6.0230313 c 1.5351563,0 1.6640625,1.7226563 1.6757813,2.4375 z m 0,0"
       style="fill:#000000;fill-opacity:1;fill-rule:nonzero;stroke:none"
       aria-label="e"
       transform="matrix(1.3333333,0,0,1.3333333,247.236,14.921333)" />
    <path
       id="path6"
       d="m 90.71011,-8.00304 v -76.33"
       style="fill:none;stroke:#000000;stroke-width:0.79701;stroke-linecap:butt;stroke-linejoin:miter;stroke-miterlimit:10;stroke-dasharray:none;stroke-opacity:1"
       transform="matrix(1.3333333,0,0,-1.3333333,10.256,10.670667)" />
    <path
       id="path7"
       d="M -1.55415,2.0722 C -1.42464,1.29512 0,0.1295 0.38852,0 0,-0.1295 -1.42464,-1.29512 -1.55415,-2.0722"
       style="fill:none;stroke:#000000;stroke-width:0.6376;stroke-linecap:round;stroke-linejoin:round;stroke-miterlimit:10;stroke-dasharray:none;stroke-opacity:1"
       transform="matrix(0,1.3333333,1.3333333,0,131.20281,123.11472)" />
    <g
       id="g7"
       aria-label="N(0,50)"
       transform="matrix(1.3333333,0,0,1.3333333,96.417333,143.36133)">
      <path
         id="path8"
         d="m 4.3950078,-8.2368203 c 0.2578125,0.75 0.5742188,1.828125 1.21875,3.5859375 0.9023438,2.4492187 1.3007813,3.328125 2.1796875,4.69921874 0.1992188,0.29296875 0.2109375,0.31640625 0.3398438,0.31640625 0.1992187,0 0.5039062,-0.17578125 0.65625,-0.29296875 0.1992187,-0.1875 0.2226562,-0.19921875 0.375,-0.90234375 C 10.031727,-4.6040078 11.12157,-8.5297891 11.40282,-9.1977578 c 0.01172,-0.023437 0.304688,-0.5742188 2.0625,-0.5976563 0.292969,-0.011719 0.5625,-0.7734379 0.5625,-1.0898439 0,-0.234375 -0.08203,-0.234375 -0.28125,-0.234375 -1.441406,0 -2.085937,0.609375 -2.261718,0.796875 -0.398438,0.5156252 -0.738282,1.5585939 -1.40625,3.9609377 -0.4921879,1.828125 -0.9609379,3.6914062 -1.3945317,5.54296874 C 7.8871953,-2.0024453 7.4418828,-3.1391641 6.7621953,-4.9907266 6.0004766,-7.0297891 5.5317266,-8.5180703 5.1450078,-9.8071328 5.0629766,-10.100102 5.0512578,-10.11182 4.9223516,-10.11182 c -0.035156,0 -0.3164063,0 -0.7382813,0.3398434 -0.140625,0.1289063 -0.1523437,0.2578125 -0.1640625,0.421875 -0.4101562,3.8203125 -1.7578125,7.5820313 -2.1445312,8.2734375 -0.1054688,0.22265629 -0.28125,0.48046879 -0.5742188,0.48046879 -0.140625,0 -0.70312499,-0.0820313 -1.06640624,-0.42187499 -0.0820313,-0.058594 -0.10546875,-0.058594 -0.1171875,-0.058594 -0.234375,0 -0.52734375,0.71484379 -0.52734375,1.06640629 0,0.4453125 0.8671875,0.7265625 1.265625,0.7265625 0.92578129,0 1.65234379,-2.01562499 1.88671879,-2.68359379 0.9257812,-2.5898437 1.3710937,-4.734375 1.6523437,-6.269531 z m 0,0"
         style="fill:#000000;fill-opacity:1;fill-rule:nonzero;stroke:none" />
      <path
         id="path9"
         d="m 18.545398,3.4819297 c 0,-0.035156 0,-0.070312 -0.246093,-0.3046875 -1.429688,-1.453125 -2.238282,-3.82031251 -2.238282,-6.75 0,-2.7773438 0.679688,-5.1796875 2.34375,-6.8671872 0.140625,-0.128907 0.140625,-0.164063 0.140625,-0.199219 0,-0.09375 -0.07031,-0.117188 -0.128906,-0.117188 -0.1875,0 -1.359375,1.0312504 -2.0625,2.4375004 -0.738281,1.453125 -1.066406,2.9882813 -1.066406,4.7460938 0,1.2773437 0.199219,2.98828124 0.949219,4.52343749 0.84375,1.72265621 2.015625,2.64843751 2.179687,2.64843751 0.05859,0 0.128906,-0.023437 0.128906,-0.1171875 z m 7.21875,-8.0742188 c 0,-1.1835937 -0.07031,-2.34375 -0.585937,-3.4335937 -0.585938,-1.1953125 -1.617188,-1.5117188 -2.320313,-1.5117188 -0.832031,0 -1.851562,0.421875 -2.378906,1.6054688 -0.410156,0.9023437 -0.550781,1.7929687 -0.550781,3.3398437 0,1.3945313 0.105469,2.4375 0.621094,3.4570313 0.5625,1.08984374 1.546875,1.44140624 2.296875,1.44140624 1.242187,0 1.957031,-0.75 2.378906,-1.58203124 0.515625,-1.078125 0.539062,-2.484375 0.539062,-3.3164063 z M 22.84618,0.01317969 c -0.46875,0 -1.394532,-0.2578125 -1.664063,-1.81640629 -0.164062,-0.8671875 -0.164062,-1.9570312 -0.164062,-2.953125 0,-1.1835937 0,-2.2382812 0.234375,-3.09375 0.246093,-0.9609375 0.972656,-1.3945312 1.59375,-1.3945312 0.539062,0 1.371093,0.328125 1.640625,1.5585937 0.1875,0.8203125 0.1875,1.9453125 0.1875,2.9296875 0,0.9609375 0,2.0507813 -0.152344,2.9179688 -0.269531,1.58203124 -1.183594,1.85156249 -1.675781,1.85156249 z m 0,0"
         style="fill:#000000;fill-opacity:1;fill-rule:nonzero;stroke:none" />
      <path
         id="path10"
         d="m 29.168445,0.06005469 c 0,-0.83203125 -0.28125,-1.45312499 -0.867187,-1.45312499 -0.457031,0 -0.691406,0.375 -0.691406,0.69140624 0,0.31640625 0.222656,0.703125 0.703125,0.703125 0.1875,0 0.351562,-0.05859375 0.480468,-0.1875 0.02344,-0.0234375 0.04687,-0.0234375 0.05859,-0.0234375 0.02344,0 0.02344,0.19921875 0.02344,0.26953125 0,0.46875 -0.08203,1.40625001 -0.914063,2.33203121 -0.164062,0.1757813 -0.164062,0.2109375 -0.164062,0.234375 0,0.070312 0.08203,0.140625 0.152343,0.140625 0.105469,0 1.21875,-1.0546875 1.21875,-2.70703121 z m 0,0"
         style="fill:#000000;fill-opacity:1;fill-rule:nonzero;stroke:none" />
      <path
         id="path11"
         d="m 34.503406,-8.2133828 c 0.609375,0.1992187 1.113282,0.2109375 1.277344,0.2109375 1.617188,0 2.648438,-1.1953125 2.648438,-1.3945313 0,-0.058594 -0.02344,-0.1289062 -0.117188,-0.1289062 -0.02344,0 -0.05859,0 -0.1875,0.058594 -0.796875,0.3515625 -1.488281,0.3867188 -1.863281,0.3867188 -0.949219,0 -1.617188,-0.28125 -1.886719,-0.3984375 -0.105469,-0.046875 -0.128906,-0.046875 -0.152344,-0.046875 -0.105468,0 -0.105468,0.09375 -0.105468,0.3164062 v 4.265625 c 0,0.2578125 0,0.3398438 0.164062,0.3398438 0.07031,0 0.09375,-0.011719 0.234375,-0.1875 0.398438,-0.5859375 1.078125,-0.9257813 1.792969,-0.9257813 0.761719,0 1.136719,0.703125 1.242187,0.9375 0.246094,0.5625 0.257813,1.265625 0.257813,1.8164063 0,0.5390625 0,1.359375 -0.398438,2.00390624 -0.316406,0.515625 -0.878906,0.87890625 -1.5,0.87890625 -0.949218,0 -1.886718,-0.64453125 -2.144531,-1.69921879 0.07031,0.035156 0.164063,0.046875 0.234375,0.046875 0.246094,0 0.632813,-0.140625 0.632813,-0.6328125 0,-0.3984375 -0.28125,-0.6328125 -0.632813,-0.6328125 -0.257812,0 -0.632812,0.1289063 -0.632812,0.6914063 0,1.21875 0.972656,2.61328124 2.566406,2.61328124 1.617187,0 3.046875,-1.37109374 3.046875,-3.18750004 0,-1.7109375 -1.148438,-3.1289062 -2.660156,-3.1289062 -0.820313,0 -1.453125,0.3632812 -1.816407,0.7617187 z m 11.607422,3.6210937 c 0,-1.1835937 -0.07031,-2.34375 -0.585937,-3.4335937 -0.585938,-1.1953125 -1.617188,-1.5117188 -2.320313,-1.5117188 -0.832031,0 -1.851562,0.421875 -2.378906,1.6054688 -0.410156,0.9023437 -0.550781,1.7929687 -0.550781,3.3398437 0,1.3945313 0.105468,2.4375 0.621093,3.4570313 0.5625,1.08984374 1.546875,1.44140624 2.296875,1.44140624 1.242188,0 1.957032,-0.75 2.378907,-1.58203124 0.515625,-1.078125 0.539062,-2.484375 0.539062,-3.3164063 z m -2.917969,4.60546879 c -0.46875,0 -1.394531,-0.2578125 -1.664062,-1.81640629 -0.164063,-0.8671875 -0.164063,-1.9570312 -0.164063,-2.953125 0,-1.1835937 0,-2.2382812 0.234375,-3.09375 0.246094,-0.9609375 0.972657,-1.3945312 1.59375,-1.3945312 0.539063,0 1.371094,0.328125 1.640625,1.5585937 0.1875,0.8203125 0.1875,1.9453125 0.1875,2.9296875 0,0.9609375 0,2.0507813 -0.152343,2.9179688 -0.269532,1.58203124 -1.183594,1.85156249 -1.675782,1.85156249 z m 7.561524,-3.58593749 c 0,-1.0898438 -0.140625,-2.8710938 -0.949219,-4.5351563 -0.84375,-1.7109375 -2.015625,-2.6484379 -2.179687,-2.6484379 -0.05859,0 -0.128907,0.02344 -0.128907,0.117188 0,0.03516 0,0.07031 0.246094,0.316406 1.441406,1.4414064 2.238281,3.8085939 2.238281,6.7382814 0,2.77734379 -0.667968,5.1796875 -2.332031,6.8671875 -0.152344,0.1289063 -0.152344,0.1640625 -0.152344,0.1992188 0,0.09375 0.07031,0.1171875 0.128907,0.1171875 0.1875,0 1.371093,-1.03125 2.074218,-2.4375 0.726563,-1.46484376 1.054688,-3.0117188 1.054688,-4.734375 z m 0,0"
         style="fill:#000000;fill-opacity:1;fill-rule:nonzero;stroke:none" />
    </g>
    <path
       id="path12"
       d="M 181.4194,-6.70787 V -33.30913"
       style="fill:none;stroke:#000000;stroke-width:0.79701;stroke-linecap:butt;stroke-linejoin:miter;stroke-miterlimit:10;stroke-dasharray:none;stroke-opacity:1"
       transform="matrix(1.3333333,0,0,-1.3333333,10.256,10.670667)" />
    <path
       id="path13"
       d="M -1.55415,2.0722 C -1.42464,1.29512 0,0.1295 0.38852,0 0,-0.1295 -1.42464,-1.29512 -1.55415,-2.0722"
       style="fill:none;stroke:#000000;stroke-width:0.6376;stroke-linecap:round;stroke-linejoin:round;stroke-miterlimit:10;stroke-dasharray:none;stroke-opacity:1"
       transform="matrix(0,1.3333333,1.3333333,0,252.14853,55.08284)" />
    <g
       id="g13"
       aria-label="N(0,σ&#10;R&#10;I)"
       transform="matrix(1.3333333,0,0,1.3333333,211.27333,75.330667)">
      <path
         id="path14"
         d="m 4.3946094,-8.2372578 c 0.2578125,0.75 0.5742187,1.828125 1.21875,3.5859375 0.9023437,2.4492187 1.3007812,3.328125 2.1796875,4.69921874 0.1992187,0.29296875 0.2109375,0.31640625 0.3398437,0.31640625 0.1992188,0 0.5039063,-0.17578125 0.65625,-0.29296875 0.1992188,-0.1875 0.2226563,-0.19921875 0.375,-0.90234375 0.8671874,-3.77343749 1.9570314,-7.69921879 2.2382814,-8.36718749 0.01172,-0.023437 0.304687,-0.5742188 2.0625,-0.5976563 0.292969,-0.011719 0.5625,-0.7734374 0.5625,-1.0898434 0,-0.234375 -0.08203,-0.234375 -0.28125,-0.234375 -1.441406,0 -2.085938,0.609375 -2.261719,0.796875 -0.398437,0.5156247 -0.738281,1.5585934 -1.40625,3.9609372 -0.4921874,1.828125 -0.9609374,3.6914062 -1.3945311,5.54296874 C 7.8867969,-2.0028828 7.4414844,-3.1396016 6.7617969,-4.9911641 6.0000781,-7.0302266 5.5313281,-8.5185078 5.1446094,-9.8075703 c -0.082031,-0.2929687 -0.09375,-0.3046877 -0.2226563,-0.3046877 -0.035156,0 -0.3164062,0 -0.7382812,0.3398439 -0.140625,0.1289063 -0.1523438,0.2578125 -0.1640625,0.421875 -0.4101563,3.8203125 -1.7578125,7.5820313 -2.1445313,8.2734375 -0.1054687,0.22265629 -0.28125,0.48046879 -0.5742187,0.48046879 -0.140625,0 -0.70312502,-0.0820313 -1.06640627,-0.42187499 -0.0820313,-0.058594 -0.10546875,-0.058594 -0.1171875,-0.058594 -0.234375,0 -0.52734375,0.71484379 -0.52734375,1.06640629 0,0.4453125 0.8671875,0.7265625 1.265625,0.7265625 0.92578122,0 1.65234372,-2.01562499 1.88671872,-2.68359379 0.9257813,-2.5898437 1.3710938,-4.734375 1.6523438,-6.269531 z m 0,0"
         style="fill:#000000;fill-opacity:1;fill-rule:nonzero;stroke:none" />
      <path
         id="path15"
         d="m 18.545,3.4814922 c 0,-0.035156 0,-0.070312 -0.246094,-0.3046875 -1.429687,-1.453125 -2.238281,-3.82031251 -2.238281,-6.75 0,-2.7773438 0.679688,-5.1796875 2.34375,-6.8671877 0.140625,-0.128906 0.140625,-0.164062 0.140625,-0.199219 0,-0.09375 -0.07031,-0.117187 -0.128906,-0.117187 -0.1875,0 -1.359375,1.0312499 -2.0625,2.4374999 -0.738281,1.453125 -1.066406,2.9882813 -1.066406,4.7460938 0,1.2773437 0.199218,2.98828124 0.949218,4.52343749 0.84375,1.72265621 2.015625,2.64843751 2.179688,2.64843751 0.05859,0 0.128906,-0.023437 0.128906,-0.1171875 z m 0,0"
         style="fill:#000000;fill-opacity:1;fill-rule:nonzero;stroke:none" />
      <path
         id="path16"
         d="m 26.759844,-4.5692891 c 0,-1.3828125 0,-4.8398437 -3.386719,-4.8398437 -3.398437,0 -3.398437,3.4453125 -3.398437,4.8398437 0,1.3710938 0,4.74609379 3.386718,4.74609379 3.386719,0 3.398438,-3.32812499 3.398438,-4.74609379 z m -3.386719,4.26562504 c -0.457031,0 -0.808594,-0.1875 -1.089844,-0.48046875 C 21.92,-1.1474141 21.697344,-1.3817891 21.697344,-4.7450703 c 0,-1.0078125 0,-1.921875 0.117187,-2.671875 0.199219,-1.4179688 1.230469,-1.5234375 1.546875,-1.5234375 0.457032,0 1.347657,0.2226562 1.546875,1.4296875 0.128907,0.7265625 0.128907,1.8867187 0.128907,2.765625 0,3.3867187 -0.210938,3.5859375 -0.644532,4.01953124 -0.292968,0.28125 -0.679687,0.421875 -1.019531,0.421875 z m 0,0"
         style="fill:#000000;fill-opacity:1;fill-rule:nonzero;stroke:none" />
      <path
         id="path17"
         d="m 30.213945,0.05961719 c 0,-0.83203125 -0.28125,-1.45312499 -0.867187,-1.45312499 -0.457031,0 -0.691406,0.375 -0.691406,0.69140624 0,0.31640625 0.222656,0.703125 0.703125,0.703125 0.1875,0 0.351562,-0.05859375 0.480468,-0.1875 0.02344,-0.0234375 0.04687,-0.0234375 0.05859,-0.0234375 0.02344,0 0.02344,0.19921875 0.02344,0.26953125 0,0.46875 -0.08203,1.40625001 -0.914063,2.33203121 -0.164062,0.1757813 -0.164062,0.2109375 -0.164062,0.234375 0,0.070312 0.08203,0.140625 0.152343,0.140625 0.105469,0 1.21875,-1.0546875 1.21875,-2.70703121 z m 10.78711,-5.46093749 c 0.1875,0 0.65625,0 0.65625,-0.46875 0,-0.3164063 -0.269532,-0.3164063 -0.527344,-0.3164063 H 37.95418 c -2.144532,0 -3.691407,2.4023438 -3.691407,4.0898438 0,1.21874999 0.785157,2.23828124 2.074219,2.23828124 1.6875,0 3.539063,-1.81640624 3.539063,-3.97265624 0,-0.5625 -0.128907,-1.1015625 -0.46875,-1.5703125 z m -4.652344,5.26171874 c -0.726563,0 -1.253906,-0.5625 -1.253906,-1.54687504 0,-0.8671875 0.515625,-3.7148437 2.613281,-3.7148437 0.621094,0 1.3125,0.2929687 1.3125,1.40625 0,0.4921875 -0.234375,1.6992187 -0.738281,2.53125 -0.515625,0.84374999 -1.289063,1.32421874 -1.933594,1.32421874 z m 0,0"
         style="fill:#000000;fill-opacity:1;fill-rule:nonzero;stroke:none" />
      <path
         id="path18"
         d="m 45.433672,-3.9657734 c 0.05859,-0.234375 0.08203,-0.3398438 0.28125,-0.3632813 0.08203,-0.011719 0.398437,-0.011719 0.597656,-0.011719 0.714844,0 1.816406,0 1.816406,0.984375 0,0.3398437 -0.152343,1.0195312 -0.550781,1.4179687 -0.257812,0.2578125 -0.785156,0.5742188 -1.675781,0.5742188 h -1.113281 z m 1.429687,2.7304687 c 1.007813,-0.2226562 2.191407,-0.9140625 2.191407,-1.921875 0,-0.8554687 -0.890625,-1.5 -2.203125,-1.5 h -2.835938 c -0.199219,0 -0.292969,0 -0.292969,0.1992188 0,0.1171875 0.09375,0.1171875 0.28125,0.1171875 0.02344,0 0.210938,0 0.386719,0.011719 0.175781,0.023437 0.257813,0.035156 0.257813,0.1640625 0,0.035156 0,0.070312 -0.03516,0.1875 l -1.335937,5.3554688 c -0.09375,0.3867187 -0.117188,0.46875 -0.902344,0.46875 -0.175781,0 -0.269531,0 -0.269531,0.1992187 0,0.1054688 0.117187,0.1054688 0.140625,0.1054688 0.28125,0 0.972656,-0.035156 1.253906,-0.035156 0.28125,0 0.984375,0.035156 1.265625,0.035156 0.08203,0 0.199219,0 0.199219,-0.1992188 0,-0.1054687 -0.09375,-0.1054687 -0.28125,-0.1054687 -0.363281,0 -0.644531,0 -0.644531,-0.1875 0,-0.058594 0.01172,-0.1054688 0.02344,-0.1640625 l 0.65625,-2.6367188 h 1.195313 c 0.902343,0 1.078125,0.55078126 1.078125,0.90234376 0,0.15234375 -0.08203,0.45703125 -0.140625,0.69140625 -0.07031,0.26953125 -0.152344,0.64453129 -0.152344,0.84374999 0,1.078125 1.195312,1.078125 1.324219,1.078125 0.84375,0 1.195312,-1.0078125 1.195312,-1.1484375 0,-0.1171875 -0.117187,-0.1171875 -0.117187,-0.1171875 -0.09375,0 -0.117188,0.070312 -0.128907,0.140625 -0.257812,0.7382813 -0.679687,0.9023438 -0.914062,0.9023438 -0.328125,0 -0.398438,-0.2226563 -0.398438,-0.609375 0,-0.3046875 0.05859,-0.82031254 0.105469,-1.13671879 0.01172,-0.140625 0.03516,-0.328125 0.03516,-0.46875 0,-0.76171875 -0.667968,-1.07812501 -0.9375,-1.17187501 z m 0,0"
         style="fill:#000000;fill-opacity:1;fill-rule:nonzero;stroke:none" />
      <path
         id="path19"
         d="m 53.783281,-9.2216328 h 1.605469 v -0.6210938 c -0.515625,0.035156 -1.957031,0.035156 -2.554687,0.035156 -0.609375,0 -2.039063,0 -2.554688,-0.035156 v 0.6210938 h 1.605469 v 8.60156249 h -1.605469 v 0.62109375 c 0.515625,-0.0234375 1.945313,-0.0234375 2.554688,-0.0234375 0.597656,0 2.039062,0 2.554687,0.0234375 v -0.62109375 h -1.605469 z m 0,0"
         style="fill:#000000;fill-opacity:1;fill-rule:nonzero;stroke:none" />
      <path
         id="path20"
         d="m 59.88875,-3.5731953 c 0,-1.0898438 -0.140625,-2.8710938 -0.949219,-4.5351563 -0.84375,-1.7109375 -2.015625,-2.6484374 -2.179687,-2.6484374 -0.05859,0 -0.128906,0.02344 -0.128906,0.117187 0,0.03516 0,0.07031 0.246093,0.316407 1.441407,1.4414059 2.238282,3.8085934 2.238282,6.7382809 0,2.77734379 -0.667969,5.1796875 -2.332032,6.8671875 -0.152343,0.1289063 -0.152343,0.1640625 -0.152343,0.1992188 0,0.09375 0.07031,0.1171875 0.128906,0.1171875 0.1875,0 1.371094,-1.03125 2.074219,-2.4375 0.726562,-1.46484376 1.054687,-3.0117188 1.054687,-4.734375 z m 0,0"
         style="fill:#000000;fill-opacity:1;fill-rule:nonzero;stroke:none" />
    </g>
    <path
       id="path21"
       d="M 192.75795,-56.69362 V -84.33304"
       style="fill:none;stroke:#000000;stroke-width:0.79701;stroke-linecap:butt;stroke-linejoin:miter;stroke-miterlimit:10;stroke-dasharray:none;stroke-opacity:1"
       transform="matrix(1.3333333,0,0,-1.3333333,10.256,10.670667)" />
    <path
       id="path22"
       d="M -1.55415,2.0722 C -1.42464,1.29512 0,0.1295 0.38852,0 0,-0.1295 -1.42464,-1.29512 -1.55415,-2.0722"
       style="fill:none;stroke:#000000;stroke-width:0.6376;stroke-linecap:round;stroke-linejoin:round;stroke-miterlimit:10;stroke-dasharray:none;stroke-opacity:1"
       transform="matrix(0,1.3333333,1.3333333,0,267.2666,123.11472)" />
    <g
       id="g22"
       aria-label="t&#10;3&#10;(0,20)"
       transform="matrix(1.3333333,0,0,1.3333333,234.70133,143.36133)">
      <path
         id="path23"
         d="M 2.8841562,-5.7641641 H 4.208375 c 0.2695312,0 0.4101562,0 0.4101562,-0.2578125 0,-0.1640625 -0.082031,-0.1640625 -0.375,-0.1640625 H 2.989625 l 0.5273437,-2.0859375 c 0.058594,-0.1992187 0.058594,-0.234375 0.058594,-0.328125 0,-0.234375 -0.1875,-0.3632812 -0.375,-0.3632812 -0.1171875,0 -0.4453125,0.046875 -0.5625,0.5039062 l -0.5625,2.2734375 H 0.72790625 c -0.28125,0 -0.41015625,0 -0.41015625,0.28125 0,0.140625 0.09375,0.140625 0.375,0.140625 H 1.9700937 L 1.020875,-1.9790078 c -0.1171875,0.5039062 -0.1640625,0.6445312 -0.1640625,0.8320312 0,0.67968754 0.4804687,1.28906254 1.2773437,1.28906254 1.453125,0 2.2265625,-2.08593754 2.2265625,-2.19140624 0,-0.082031 -0.058594,-0.1289063 -0.140625,-0.1289063 -0.035156,0 -0.082031,0 -0.1171875,0.058594 -0.011719,0.011719 -0.023437,0.023437 -0.1289062,0.2578125 -0.3046875,0.7148437 -0.9609375,1.72265624 -1.7929688,1.72265624 -0.4335937,0 -0.4570312,-0.36328125 -0.4570312,-0.6796875 0,-0.0117188 0,-0.28125004 0.046875,-0.45703124 z m 0,0"
         style="fill:#000000;fill-opacity:1;fill-rule:nonzero;stroke:none" />
      <path
         id="path24"
         d="m 7.9671641,-1.3520547 c 0.8085937,-0.2695312 1.3945312,-0.9726562 1.3945312,-1.7578125 0,-0.8203125 -0.8789062,-1.3710937 -1.8398437,-1.3710937 -1.0078125,0 -1.7578125,0.5976562 -1.7578125,1.3476562 0,0.3398438 0.2109375,0.5273438 0.5039062,0.5273438 0.3046875,0 0.5039063,-0.2226563 0.5039063,-0.515625 0,-0.4921875 -0.46875,-0.4921875 -0.609375,-0.4921875 0.3046875,-0.4921875 0.9609375,-0.6210938 1.3242187,-0.6210938 0.4101563,0 0.9492188,0.2226563 0.9492188,1.1132813 0,0.1289062 -0.011719,0.703125 -0.2695313,1.1367187 -0.3046875,0.4804688 -0.6445312,0.515625 -0.890625,0.515625 -0.082031,0.011719 -0.3164062,0.035156 -0.3867187,0.035156 -0.082031,0.011719 -0.1523438,0.023437 -0.1523438,0.1171875 0,0.1171875 0.070312,0.1171875 0.234375,0.1171875 h 0.4453125 c 0.8085938,0 1.1835938,0.66796871 1.1835938,1.65234371 0,1.34765629 -0.6914063,1.64062499 -1.125,1.64062499 -0.4335938,0 -1.171875,-0.1757812 -1.5234375,-0.7617187 0.3515625,0.058594 0.65625,-0.1640625 0.65625,-0.53906254 0,-0.36328125 -0.2695313,-0.5625 -0.5625,-0.5625 -0.234375,0 -0.5507813,0.140625 -0.5507813,0.57421875 0,0.91406249 0.9257813,1.57031249 2.0039063,1.57031249 1.21875,0 2.1210937,-0.9140625 2.1210937,-1.92187499 0,-0.8203125 -0.6210937,-1.59375001 -1.6523437,-1.80468721 z m 0,0"
         style="fill:#000000;fill-opacity:1;fill-rule:nonzero;stroke:none" />
      <path
         id="path25"
         d="m 15.215211,3.4819297 c 0,-0.035156 0,-0.070312 -0.246094,-0.3046875 -1.429687,-1.453125 -2.238281,-3.82031251 -2.238281,-6.75 0,-2.7773438 0.679687,-5.1796875 2.34375,-6.8671872 0.140625,-0.128907 0.140625,-0.164063 0.140625,-0.199219 0,-0.09375 -0.07031,-0.117188 -0.128906,-0.117188 -0.1875,0 -1.359375,1.0312504 -2.0625,2.4375004 -0.738282,1.453125 -1.066407,2.9882813 -1.066407,4.7460938 0,1.2773437 0.199219,2.98828124 0.949219,4.52343749 0.84375,1.72265621 2.015625,2.64843751 2.179688,2.64843751 0.05859,0 0.128906,-0.023437 0.128906,-0.1171875 z m 7.22168,-8.0742188 c 0,-1.1835937 -0.07031,-2.34375 -0.585938,-3.4335937 -0.585937,-1.1953125 -1.617187,-1.5117188 -2.320312,-1.5117188 -0.832032,0 -1.851563,0.421875 -2.378907,1.6054688 -0.410156,0.9023437 -0.550781,1.7929687 -0.550781,3.3398437 0,1.3945313 0.105469,2.4375 0.621094,3.4570313 0.5625,1.08984374 1.546875,1.44140624 2.296875,1.44140624 1.242187,0 1.957031,-0.75 2.378906,-1.58203124 0.515625,-1.078125 0.539063,-2.484375 0.539063,-3.3164063 z m -2.917969,4.60546879 c -0.46875,0 -1.394531,-0.2578125 -1.664063,-1.81640629 -0.164062,-0.8671875 -0.164062,-1.9570312 -0.164062,-2.953125 0,-1.1835937 0,-2.2382812 0.234375,-3.09375 0.246094,-0.9609375 0.972656,-1.3945312 1.59375,-1.3945312 0.539062,0 1.371094,0.328125 1.640625,1.5585937 0.1875,0.8203125 0.1875,1.9453125 0.1875,2.9296875 0,0.9609375 0,2.0507813 -0.152344,2.9179688 -0.269531,1.58203124 -1.183594,1.85156249 -1.675781,1.85156249 z m 0,0"
         style="fill:#000000;fill-opacity:1;fill-rule:nonzero;stroke:none" />
      <path
         id="path26"
         d="m 25.838258,0.06005469 c 0,-0.83203125 -0.28125,-1.45312499 -0.867188,-1.45312499 -0.457031,0 -0.691406,0.375 -0.691406,0.69140624 0,0.31640625 0.222656,0.703125 0.703125,0.703125 0.1875,0 0.351563,-0.05859375 0.480469,-0.1875 0.02344,-0.0234375 0.04687,-0.0234375 0.05859,-0.0234375 0.02344,0 0.02344,0.19921875 0.02344,0.26953125 0,0.46875 -0.08203,1.40625001 -0.914062,2.33203121 -0.164063,0.1757813 -0.164063,0.2109375 -0.164063,0.234375 0,0.070312 0.08203,0.140625 0.152344,0.140625 0.105469,0 1.21875,-1.0546875 1.21875,-2.70703121 z m 0,0"
         style="fill:#000000;fill-opacity:1;fill-rule:nonzero;stroke:none" />
      <path
         id="path27"
         d="m 35.652711,-2.4126016 h -0.316406 c -0.04687,0.2460938 -0.164063,1.03125 -0.304688,1.265625 -0.105469,0.1289063 -0.914062,0.1289063 -1.347656,0.1289063 h -2.660156 c 0.386718,-0.328125 1.265625,-1.2421875 1.640625,-1.59375 2.179687,-2.0039063 2.988281,-2.7539063 2.988281,-4.171875 0,-1.6523438 -1.3125,-2.7539063 -2.976563,-2.7539063 -1.664062,0 -2.636718,1.4179688 -2.636718,2.6484375 0,0.7382813 0.632812,0.7382813 0.679687,0.7382813 0.292969,0 0.667969,-0.2109375 0.667969,-0.6796875 0,-0.3984375 -0.269531,-0.6679688 -0.667969,-0.6679688 -0.140625,0 -0.164062,0 -0.210937,0.011719 0.28125,-0.9726563 1.054687,-1.6289063 1.980468,-1.6289063 1.21875,0 1.96875,1.0078125 1.96875,2.3320313 0,1.21875 -0.703125,2.2851562 -1.523437,3.1992187 l -2.894531,3.24609379 v 0.33984375 h 5.238281 z m 7.130859,-2.1796875 c 0,-1.1835937 -0.07031,-2.34375 -0.585937,-3.4335937 -0.585938,-1.1953125 -1.617188,-1.5117188 -2.320313,-1.5117188 -0.832031,0 -1.851562,0.421875 -2.378906,1.6054688 -0.410156,0.9023437 -0.550781,1.7929687 -0.550781,3.3398437 0,1.3945313 0.105469,2.4375 0.621094,3.4570313 0.5625,1.08984374 1.546875,1.44140624 2.296875,1.44140624 1.242187,0 1.957031,-0.75 2.378906,-1.58203124 0.515625,-1.078125 0.539062,-2.484375 0.539062,-3.3164063 z m -2.917968,4.60546879 c -0.46875,0 -1.394532,-0.2578125 -1.664063,-1.81640629 -0.164062,-0.8671875 -0.164062,-1.9570312 -0.164062,-2.953125 0,-1.1835937 0,-2.2382812 0.234375,-3.09375 0.246093,-0.9609375 0.972656,-1.3945312 1.59375,-1.3945312 0.539062,0 1.371093,0.328125 1.640625,1.5585937 0.1875,0.8203125 0.1875,1.9453125 0.1875,2.9296875 0,0.9609375 0,2.0507813 -0.152344,2.9179688 -0.269531,1.58203124 -1.183594,1.85156249 -1.675781,1.85156249 z m 7.561523,-3.58593749 c 0,-1.0898438 -0.140625,-2.8710938 -0.949219,-4.5351563 -0.84375,-1.7109375 -2.015625,-2.6484379 -2.179687,-2.6484379 -0.05859,0 -0.128907,0.02344 -0.128907,0.117188 0,0.03516 0,0.07031 0.246094,0.316406 1.441406,1.4414064 2.238281,3.8085939 2.238281,6.7382814 0,2.77734379 -0.667968,5.1796875 -2.332031,6.8671875 -0.152344,0.1289063 -0.152344,0.1640625 -0.152344,0.1992188 0,0.09375 0.07031,0.1171875 0.128907,0.1171875 0.1875,0 1.371093,-1.03125 2.074218,-2.4375 0.726563,-1.46484376 1.054688,-3.0117188 1.054688,-4.734375 z m 0,0"
         style="fill:#000000;fill-opacity:1;fill-rule:nonzero;stroke:none" />
    </g>
  </g>
</svg>
