<?xml version="1.0" encoding="UTF-8" standalone="no"?>
<!-- Created with Inkscape (http://www.inkscape.org/) -->

<svg
   version="1.1"
   id="svg1"
   width="788.03064"
   height="155.892"
   viewBox="0 0 788.03064 155.892"
   xmlns="http://www.w3.org/2000/svg"
   xmlns:svg="http://www.w3.org/2000/svg">
  <defs
     id="defs1" />
  <g
     id="g1">
    <path
       id="path1"
       d="m 7.1028281,-5.4373906 c 0.082031,-0.1992188 0.140625,-0.3164063 1.0546875,-0.3164063 v -0.609375 c -0.4804687,0.023437 -0.5390625,0.023437 -1.125,0.023437 -0.3867187,0 -0.421875,0 -1.2421875,-0.023437 v 0.609375 c 0.023437,0 0.6914063,0 0.6914063,0.1875 0,0.046875 -0.035156,0.1289063 -0.058594,0.1757813 l -1.6757812,3.609375 -1.8398438,-3.9726563 h 0.796875 v -0.609375 c -0.3515625,0.023437 -1.3242187,0.023437 -1.7226562,0.023437 -0.421875,0 -1.26562502,0 -1.64062502,-0.023437 v 0.609375 H 1.2668906 L 3.9153281,1.09375e-4 C 3.8450156,0.17589062 3.6457969,0.58604687 3.5754844,0.76182812 3.2707969,1.4063594 2.8137656,2.3907344 1.8059531,2.3907344 c -0.058594,0 -0.2226562,0 -0.3867187,-0.082031 0.035156,-0.011719 0.4570312,-0.1875 0.4570312,-0.7265625 0,-0.4804687 -0.3398437,-0.77343748 -0.7734375,-0.77343748 -0.44531247,0 -0.78515622,0.29296878 -0.78515622,0.78515628 0,0.6679687 0.6328125,1.2773437 1.48828122,1.2773437 1.1835938,0 1.9570313,-1.0664062 2.2382813,-1.6992187 z m 0,0"
       style="fill:#000000;fill-opacity:1;fill-rule:nonzero;stroke:none"
       aria-label="y"
       transform="matrix(1.3333333,0,0,1.3333333,4.428,16.382667)" />
    <path
       id="path2"
       d="m 9.6806719,-4.6513594 c 0.1992187,0 0.4570311,0 0.4570311,-0.2578125 0,-0.2695312 -0.2343749,-0.2695312 -0.4570311,-0.2695312 H 1.2314531 c -0.1992187,0 -0.45703122,0 -0.45703122,0.2578125 0,0.2695312 0.24609372,0.2695312 0.45703122,0.2695312 z m 0,2.671875 c 0.1992187,0 0.4570311,0 0.4570311,-0.2578125 0,-0.2695312 -0.2343749,-0.2695312 -0.4570311,-0.2695312 H 1.2314531 c -0.1992187,0 -0.45703122,0 -0.45703122,0.2578125 0,0.2695312 0.24609372,0.2695312 0.45703122,0.2695312 z m 0,0"
       style="fill:#000000;fill-opacity:1;fill-rule:nonzero;stroke:none"
       aria-label="="
       transform="matrix(1.3333333,0,0,1.3333333,63.444,17.444)" />
    <path
       id="path3"
       d="m 2.0623047,-0.31690625 c 0.3632812,0.328125 0.890625,0.45703125 1.3828125,0.45703125 0.9140625,0 1.546875,-0.609375 1.875,-1.0546875 0.140625,0.76171875 0.75,1.0546875 1.2539062,1.0546875 0.421875,0 0.7734375,-0.2578125 1.03125,-0.7734375 0.2226563,-0.4804688 0.421875,-1.359375 0.421875,-1.4179688 0,-0.070312 -0.046875,-0.1289062 -0.140625,-0.1289062 -0.1289062,0 -0.140625,0.070312 -0.1992187,0.28125 -0.2109375,0.8554687 -0.4921875,1.7578125 -1.078125,1.7578125 -0.4101563,0 -0.4453125,-0.375 -0.4453125,-0.66796875 0,-0.32812505 0.1289062,-0.84375005 0.234375,-1.26562505 l 0.3984375,-1.5585937 c 0.058594,-0.2695313 0.2226562,-0.9140625 0.2929687,-1.171875 0.082031,-0.3398438 0.234375,-0.9609375 0.234375,-1.0195313 0,-0.2109375 -0.1640625,-0.3632812 -0.3867187,-0.3632812 -0.1289063,0 -0.421875,0.058594 -0.5390625,0.4921875 l -1.0078125,3.984375 c -0.070312,0.2929687 -0.070312,0.3164062 -0.2578125,0.5507812 -0.1640625,0.2460938 -0.7265625,1.0195313 -1.6289063,1.0195313 -0.8085937,0 -1.0664062,-0.5859375 -1.0664062,-1.265625 0,-0.4101563 0.1289062,-0.9140625 0.1875,-1.1601563 l 0.6445312,-2.578125 c 0.070312,-0.28125 0.1875,-0.7382812 0.1875,-0.8203125 0,-0.234375 -0.1875,-0.3632812 -0.375,-0.3632812 -0.1289062,0 -0.4453125,0.046875 -0.5625,0.5039062 L 0.44511719,2.483875 c -0.0117188,0.070312 -0.046875,0.1523437 -0.046875,0.2460937 0,0.2109375 0.17578125,0.3515625 0.38671875,0.3515625 0.42187496,0 0.50390626,-0.328125 0.60937496,-0.7265625 z m 0,0"
       style="fill:#000000;fill-opacity:1;fill-rule:nonzero;stroke:none"
       aria-label="µ"
       transform="matrix(1.3333333,0,0,1.3333333,125.56667,16.250667)" />
    <path
       id="path4"
       d="m 5.7177891,-3.3173281 h 3.9609375 c 0.1992187,0 0.4570314,0 0.4570314,-0.2578125 0,-0.2695313 -0.2343752,-0.2695313 -0.4570314,-0.2695313 H 5.7177891 v -3.9609375 c 0,-0.1992187 0,-0.4570312 -0.2578125,-0.4570312 -0.2695313,0 -0.2695313,0.2460937 -0.2695313,0.4570312 v 3.9609375 H 1.2295078 c -0.1992187,0 -0.45703124,0 -0.45703124,0.2578125 0,0.2695313 0.24609374,0.2695313 0.45703124,0.2695313 h 3.9609375 v 3.96093747 c 0,0.19921875 0,0.45703123 0.2578125,0.45703123 0.2695313,0 0.2695313,-0.24609373 0.2695313,-0.45703123 z m 0,0"
       style="fill:#000000;fill-opacity:1;fill-rule:nonzero;stroke:none"
       aria-label="+"
       transform="matrix(1.3333333,0,0,1.3333333,184.388,18.774667)" />
    <g
       id="g4"
       aria-label="β&#10;B&#10;¯&#10;x"
       transform="matrix(1.3333333,0,0,1.3333333,235.476,18.774667)">
      <path
         id="path5"
         d="m 8.1215156,-8.3446719 c 0,-0.8671875 -0.7382812,-1.7695311 -2.0390625,-1.7695311 -1.8515625,0 -3.0234375,2.2617186 -3.3984375,3.7617186 L 0.41057813,2.6357969 c -0.0234375,0.1171875 0.0585938,0.140625 0.140625,0.140625 0.09375,0 0.1640625,-0.011719 0.17578125,-0.082031 L 1.7347969,-1.3251406 c 0.140625,0.80859372 0.9375,1.46484372 1.78125,1.46484372 2.0507812,0 3.984375,-1.60546872 3.984375,-3.73828122 0,-0.5507813 -0.1289063,-1.0898438 -0.4335938,-1.546875 -0.1640625,-0.28125 -0.3867187,-0.4804688 -0.609375,-0.6445313 1.03125,-0.5507812 1.6640625,-1.4296875 1.6640625,-2.5546875 z m -2.4960937,2.53125 c -0.234375,0.09375 -0.4570313,0.1171875 -0.7382813,0.1171875 -0.1992187,0 -0.3867187,0.011719 -0.6445312,-0.070312 0.1523437,-0.1054687 0.3632812,-0.1289062 0.6679687,-0.1289062 0.2578125,0 0.515625,0.023437 0.7148438,0.082031 z m 1.7460937,-2.6601562 c 0,0.7851562 -0.3867187,1.9335937 -1.3125,2.4609375 -0.28125,-0.09375 -0.65625,-0.1757813 -0.9609375,-0.1757813 -0.3046875,0 -1.171875,-0.023437 -1.171875,0.4335938 0,0.3867187 0.796875,0.3515625 1.0429688,0.3515625 0.3632812,0 0.6914062,-0.09375 1.0429687,-0.1875 0.4570313,0.3632812 0.65625,0.8554687 0.65625,1.5703125 0,0.8320312 -0.2226562,1.5117187 -0.5039062,2.1210937 -0.46875,1.06640627 -1.59375,1.75781252 -2.578125,1.75781252 -1.0429688,0 -1.59375,-0.83203125 -1.59375,-1.80468752 0,-0.1289062 0,-0.3164062 0.058594,-0.5390625 l 0.9375,-3.7734375 c 0.46875,-1.875 1.6757813,-3.5625 3.0703125,-3.5625 1.03125,0 1.3125,0.7148438 1.3124997,1.3476563 z m 0,0"
         style="fill:#000000;fill-opacity:1;fill-rule:nonzero;stroke:none" />
      <path
         id="path6"
         d="m 9.5248359,1.3789609 c -0.09375,0.3867188 -0.1171875,0.46875 -0.9023437,0.46875 -0.1757813,0 -0.2695313,0 -0.2695313,0.1992188 0,0.1054687 0.082031,0.1054687 0.2695313,0.1054687 h 3.5507808 c 1.570313,0 2.753907,-1.17187496 2.753907,-2.15624996 0,-0.71484375 -0.585938,-1.28906254 -1.546875,-1.39453124 1.03125,-0.1992188 2.085937,-0.9375 2.085937,-1.875 0,-0.7382813 -0.65625,-1.3828125 -1.851562,-1.3828125 h -3.351563 c -0.1875,0 -0.2929686,0 -0.2929686,0.1992187 0,0.1171875 0.09375,0.1171875 0.2812496,0.1171875 0.02344,0 0.210938,0 0.375,0.011719 0.1875,0.023437 0.269532,0.035156 0.269532,0.1640625 0,0.035156 -0.01172,0.070312 -0.03516,0.1875 z m 1.5000001,-2.8710937 0.621094,-2.4726563 c 0.09375,-0.3515625 0.105468,-0.375 0.539062,-0.375 h 1.289063 c 0.867187,0 1.078125,0.5859375 1.078125,1.0195313 0,0.8789062 -0.855469,1.828125 -2.074219,1.828125 z m -0.445313,3.3398437 c -0.140625,0 -0.152343,0 -0.222656,-0.011719 -0.09375,-0.011719 -0.128906,-0.023437 -0.128906,-0.1054688 0,-0.023437 0,-0.046875 0.05859,-0.2226562 l 0.679687,-2.7773438 h 1.886719 c 0.960937,0 1.148437,0.72656254 1.148437,1.16015629 0,0.984375 -0.890625,1.95703121 -2.0625,1.95703121 z m 0,0"
         style="fill:#000000;fill-opacity:1;fill-rule:nonzero;stroke:none" />
      <path
         id="path7"
         d="m 23.268,-8.1923281 v -0.4101563 h -5.0625 v 0.4101563 z m 0,0"
         style="fill:#000000;fill-opacity:1;fill-rule:nonzero;stroke:none" />
      <path
         id="path8"
         d="m 21.313898,-3.5399844 1.664063,-1.9101562 c 0.164062,-0.1875 0.292969,-0.3046875 1.488281,-0.3046875 v -0.609375 c -0.808594,0.023437 -0.832031,0.023437 -1.324219,0.023437 -0.421875,0 -1.03125,0 -1.429687,-0.023437 v 0.609375 c 0.269531,0 0.5625,0.070312 0.5625,0.1757812 0,0.023437 -0.07031,0.1289063 -0.09375,0.1523438 l -1.253906,1.40625 -1.417969,-1.734375 h 0.609375 v -0.609375 c -0.328125,0.023437 -1.3125,0.023437 -1.699219,0.023437 -0.421875,0 -1.207031,0 -1.605469,-0.023437 v 0.609375 h 1.019532 l 2.238281,2.7304687 -1.863281,2.10937502 c -0.175782,0.19921875 -0.269532,0.29296875 -1.464844,0.29296875 v 0.621093755 c 0.855469,-0.023437505 0.890625,-0.023437505 1.335937,-0.023437505 0.410157,0 1.019532,0 1.417969,0.023437505 V -0.62201563 c -0.269531,0 -0.574219,-0.0703125 -0.574219,-0.1640625 0,-0.0234375 0,-0.0351563 0.105469,-0.15234375 l 1.429688,-1.61718752 1.59375,1.93359377 h -0.597657 v 0.621093755 c 0.339844,-0.023437505 1.300782,-0.023437505 1.699219,-0.023437505 0.433594,0 1.195313,0 1.59375,0.023437505 V -0.62201563 H 23.73968 Z m 0,0"
         style="fill:#000000;fill-opacity:1;fill-rule:nonzero;stroke:none" />
    </g>
    <path
       id="path9"
       d="m 5.7177734,-3.3173281 h 3.9609375 c 0.1992188,0 0.4570311,0 0.4570311,-0.2578125 0,-0.2695313 -0.2343748,-0.2695313 -0.4570311,-0.2695313 H 5.7177734 v -3.9609375 c 0,-0.1992187 0,-0.4570312 -0.2578125,-0.4570312 -0.2695312,0 -0.2695312,0.2460937 -0.2695312,0.4570312 v 3.9609375 H 1.2294922 c -0.1992188,0 -0.45703126,0 -0.45703126,0.2578125 0,0.2695313 0.24609376,0.2695313 0.45703126,0.2695313 h 3.9609375 v 3.96093747 c 0,0.19921875 0,0.45703123 0.2578125,0.45703123 0.2695312,0 0.2695312,-0.24609373 0.2695312,-0.45703123 z m 0,0"
       style="fill:#000000;fill-opacity:1;fill-rule:nonzero;stroke:none"
       aria-label="+"
       transform="matrix(1.3333333,0,0,1.3333333,305.33333,18.774667)" />
    <g
       id="g9"
       aria-label="β&#10;W&#10;(x−&#10;¯&#10;x)"
       transform="matrix(1.3333333,0,0,1.3333333,329.94533,18.774667)">
      <path
         id="path10"
         d="m 8.1210781,-8.3446719 c 0,-0.8671875 -0.7382812,-1.7695311 -2.0390625,-1.7695311 -1.8515625,0 -3.0234375,2.2617186 -3.3984375,3.7617186 L 0.41014063,2.6357969 c -0.0234375,0.1171875 0.0585938,0.140625 0.140625,0.140625 0.09375,0 0.1640625,-0.011719 0.17578125,-0.082031 L 1.7343594,-1.3251406 c 0.140625,0.80859372 0.9375,1.46484372 1.78125,1.46484372 2.0507812,0 3.984375,-1.60546872 3.984375,-3.73828122 0,-0.5507813 -0.1289063,-1.0898438 -0.4335938,-1.546875 -0.1640625,-0.28125 -0.3867187,-0.4804688 -0.609375,-0.6445313 1.03125,-0.5507812 1.6640625,-1.4296875 1.6640625,-2.5546875 z m -2.4960937,2.53125 c -0.234375,0.09375 -0.4570313,0.1171875 -0.7382813,0.1171875 -0.1992187,0 -0.3867187,0.011719 -0.6445312,-0.070312 0.1523437,-0.1054687 0.3632812,-0.1289062 0.6679687,-0.1289062 0.2578125,0 0.515625,0.023437 0.7148438,0.082031 z m 1.7460937,-2.6601562 c 0,0.7851562 -0.3867187,1.9335937 -1.3125,2.4609375 -0.28125,-0.09375 -0.65625,-0.1757813 -0.9609375,-0.1757813 -0.3046875,0 -1.171875,-0.023437 -1.171875,0.4335938 0,0.3867187 0.796875,0.3515625 1.0429688,0.3515625 0.3632812,0 0.6914062,-0.09375 1.0429687,-0.1875 0.4570313,0.3632812 0.65625,0.8554687 0.65625,1.5703125 0,0.8320312 -0.2226562,1.5117187 -0.5039062,2.1210937 -0.46875,1.06640627 -1.59375,1.75781252 -2.578125,1.75781252 -1.0429688,0 -1.59375,-0.83203125 -1.59375,-1.80468752 0,-0.1289062 0,-0.3164062 0.058594,-0.5390625 l 0.9375,-3.7734375 c 0.46875,-1.875 1.6757813,-3.5625 3.0703125,-3.5625 1.03125,0 1.3125,0.7148438 1.3124997,1.3476563 z m 0,0"
         style="fill:#000000;fill-opacity:1;fill-rule:nonzero;stroke:none" />
      <path
         id="path11"
         d="m 17.059555,-3.4960391 c 0.257812,-0.4335937 0.492187,-0.796875 1.125,-0.84375 0.08203,-0.011719 0.1875,-0.011719 0.1875,-0.1992187 0,-0.046875 -0.04687,-0.1171875 -0.117188,-0.1171875 -0.246094,0 -0.527344,0.035156 -0.773437,0.035156 -0.339844,0 -0.703125,-0.035156 -1.03125,-0.035156 -0.05859,0 -0.1875,0 -0.1875,0.1992187 0,0.1054688 0.08203,0.1171875 0.140625,0.1171875 0.246093,0.011719 0.597656,0.082031 0.597656,0.3867188 0,0.1054687 -0.05859,0.1875 -0.140625,0.328125 l -2.683594,4.6875 -0.363281,-4.9335938 c -0.01172,-0.1992187 -0.03516,-0.4570312 0.691406,-0.46875 0.164063,0 0.269531,0 0.269531,-0.1992187 0,-0.1054688 -0.105468,-0.1171875 -0.152343,-0.1171875 -0.398438,0 -0.808594,0.035156 -1.207032,0.035156 -0.234375,0 -0.820312,-0.035156 -1.054687,-0.035156 -0.05859,0 -0.1875,0 -0.1875,0.1992187 0,0.1171875 0.105469,0.1171875 0.246094,0.1171875 0.433593,0 0.503906,0.058594 0.527343,0.2460938 l 0.05859,0.7617187 -2.519531,4.3945313 -0.386719,-5.0507813 c 0,-0.1171875 0,-0.3398437 0.761719,-0.3515625 0.09375,0 0.210937,0 0.210937,-0.1992187 0,-0.1171875 -0.117187,-0.1171875 -0.140625,-0.1171875 -0.398437,0 -0.820312,0.035156 -1.2304683,0.035156 -0.3398438,0 -0.703125,-0.035156 -1.0429688,-0.035156 -0.046875,0 -0.1757812,0 -0.1757812,0.1992187 0,0.1171875 0.082031,0.1171875 0.2460937,0.1171875 0.5039063,0 0.5039063,0.082031 0.5273438,0.3632813 l 0.4453125,6.09375 c 0.011719,0.1757812 0.023437,0.2578125 0.1640625,0.2578125 0.1171875,0 0.1523438,-0.058594 0.2343748,-0.2109375 l 2.929688,-5.0859375 0.375,5.0390625 c 0.01172,0.1992187 0.03516,0.2578125 0.152343,0.2578125 0.128907,0 0.1875,-0.1054688 0.246094,-0.1875 z m 0,0"
         style="fill:#000000;fill-opacity:1;fill-rule:nonzero;stroke:none" />
      <path
         id="path12"
         d="m 23.885727,3.4795469 c 0,-0.035156 0,-0.070312 -0.246094,-0.3046875 -1.429688,-1.453125 -2.238281,-3.82031253 -2.238281,-6.75 0,-2.7773438 0.679687,-5.1796875 2.34375,-6.8671874 0.140625,-0.128906 0.140625,-0.164063 0.140625,-0.199219 0,-0.09375 -0.07031,-0.117187 -0.128907,-0.117187 -0.1875,0 -1.359375,1.0312496 -2.0625,2.4374996 -0.738281,1.453125 -1.066406,2.9882813 -1.066406,4.7460938 0,1.2773437 0.199219,2.98828122 0.949219,4.52343747 0.84375,1.72265623 2.015625,2.64843753 2.179687,2.64843753 0.05859,0 0.128907,-0.023437 0.128907,-0.1171875 z m 0,0"
         style="fill:#000000;fill-opacity:1;fill-rule:nonzero;stroke:none" />
      <path
         id="path13"
         d="m 29.510727,-3.5399844 1.664062,-1.9101562 c 0.164063,-0.1875 0.292969,-0.3046875 1.488281,-0.3046875 v -0.609375 c -0.808593,0.023437 -0.832031,0.023437 -1.324218,0.023437 -0.421875,0 -1.03125,0 -1.429688,-0.023437 v 0.609375 c 0.269531,0 0.5625,0.070312 0.5625,0.1757812 0,0.023437 -0.07031,0.1289063 -0.09375,0.1523438 l -1.253906,1.40625 -1.417969,-1.734375 h 0.609375 v -0.609375 c -0.328125,0.023437 -1.3125,0.023437 -1.699219,0.023437 -0.421875,0 -1.207031,0 -1.605468,-0.023437 v 0.609375 h 1.019531 l 2.238281,2.7304687 -1.863281,2.10937502 c -0.175781,0.19921875 -0.269531,0.29296875 -1.464844,0.29296875 v 0.621093755 c 0.855469,-0.023437505 0.890625,-0.023437505 1.335938,-0.023437505 0.410156,0 1.019531,0 1.417968,0.023437505 V -0.62201563 c -0.269531,0 -0.574218,-0.0703125 -0.574218,-0.1640625 0,-0.0234375 0,-0.0351563 0.105468,-0.15234375 l 1.429688,-1.61718752 1.59375,1.93359377 h -0.597656 v 0.621093755 c 0.339843,-0.023437505 1.300781,-0.023437505 1.699218,-0.023437505 0.433594,0 1.195313,0 1.59375,0.023437505 V -0.62201563 h -1.007812 z m 0,0"
         style="fill:#000000;fill-opacity:1;fill-rule:nonzero;stroke:none" />
      <path
         id="path14"
         d="m 45.843734,-3.3056094 c 0.234375,0 0.492188,0 0.492188,-0.28125 0,-0.28125 -0.257813,-0.28125 -0.492188,-0.28125 h -7.769531 c -0.234375,0 -0.492187,0 -0.492187,0.28125 0,0.28125 0.257812,0.28125 0.492187,0.28125 z m 0,0"
         style="fill:#000000;fill-opacity:1;fill-rule:nonzero;stroke:none" />
      <path
         id="path15"
         d="m 57.518539,-8.1923281 v -0.4101563 h -5.0625 v 0.4101563 z m 0,0"
         style="fill:#000000;fill-opacity:1;fill-rule:nonzero;stroke:none" />
      <path
         id="path16"
         d="M 55.564438,-3.5399844 57.2285,-5.4501406 c 0.164063,-0.1875 0.292969,-0.3046875 1.488281,-0.3046875 v -0.609375 c -0.808593,0.023437 -0.832031,0.023437 -1.324218,0.023437 -0.421875,0 -1.03125,0 -1.429688,-0.023437 v 0.609375 c 0.269531,0 0.5625,0.070312 0.5625,0.1757812 0,0.023437 -0.07031,0.1289063 -0.09375,0.1523438 l -1.253906,1.40625 -1.417969,-1.734375 h 0.609375 v -0.609375 c -0.328125,0.023437 -1.3125,0.023437 -1.699219,0.023437 -0.421875,0 -1.207031,0 -1.605468,-0.023437 v 0.609375 h 1.019531 l 2.238281,2.7304687 -1.863281,2.10937502 c -0.175781,0.19921875 -0.269531,0.29296875 -1.464844,0.29296875 v 0.621093755 c 0.855469,-0.023437505 0.890625,-0.023437505 1.335938,-0.023437505 0.410156,0 1.019531,0 1.417968,0.023437505 V -0.62201563 c -0.269531,0 -0.574218,-0.0703125 -0.574218,-0.1640625 0,-0.0234375 0,-0.0351563 0.105468,-0.15234375 l 1.429688,-1.61718752 1.59375,1.93359377 h -0.597656 v 0.621093755 c 0.339843,-0.023437505 1.300781,-0.023437505 1.699218,-0.023437505 0.433594,0 1.195313,0 1.59375,0.023437505 V -0.62201563 h -1.007812 z m 0,0"
         style="fill:#000000;fill-opacity:1;fill-rule:nonzero;stroke:none" />
      <path
         id="path17"
         d="m 63.295883,-3.5751406 c 0,-1.0898438 -0.140625,-2.8710938 -0.949219,-4.5351563 -0.84375,-1.7109375 -2.015625,-2.6484371 -2.179687,-2.6484371 -0.05859,0 -0.128907,0.02344 -0.128907,0.117187 0,0.03516 0,0.07031 0.246094,0.316406 1.441406,1.4414066 2.238281,3.8085941 2.238281,6.7382816 0,2.77734377 -0.667968,5.1796875 -2.332031,6.8671875 -0.152344,0.1289063 -0.152344,0.1640625 -0.152344,0.1992188 0,0.09375 0.07031,0.1171875 0.128907,0.1171875 0.1875,0 1.371093,-1.03125 2.074218,-2.4375 0.726563,-1.46484378 1.054688,-3.0117188 1.054688,-4.734375 z m 0,0"
         style="fill:#000000;fill-opacity:1;fill-rule:nonzero;stroke:none" />
    </g>
    <path
       id="path18"
       d="m 5.7177578,-3.3173281 h 3.9609375 c 0.1992188,0 0.4570317,0 0.4570317,-0.2578125 0,-0.2695313 -0.2343754,-0.2695313 -0.4570317,-0.2695313 H 5.7177578 v -3.9609375 c 0,-0.1992187 0,-0.4570312 -0.2578125,-0.4570312 -0.2695312,0 -0.2695312,0.2460937 -0.2695312,0.4570312 v 3.9609375 H 1.2294766 c -0.1992188,0 -0.45703129,0 -0.45703129,0.2578125 0,0.2695313 0.24609379,0.2695313 0.45703129,0.2695313 h 3.9609375 v 3.96093747 c 0,0.19921875 0,0.45703123 0.2578125,0.45703123 0.2695312,0 0.2695312,-0.24609373 0.2695312,-0.45703123 z m 0,0"
       style="fill:#000000;fill-opacity:1;fill-rule:nonzero;stroke:none"
       aria-label="+"
       transform="matrix(1.3333333,0,0,1.3333333,426.27867,18.774667)" />
    <path
       id="path19"
       d="m 6.5981719,-4.2894219 c 0,-1.3242187 -1.0429688,-2.203125 -3.0703125,-2.203125 -0.796875,0 -2.4960938,0.070312 -2.4960938,1.265625 0,0.609375 0.4570313,0.8671875 0.84375,0.8671875 0.4335938,0 0.8554688,-0.3046875 0.8554688,-0.84375 0,-0.28125 -0.1054688,-0.5390625 -0.3515625,-0.6914062 0.4804687,-0.1289063 0.8203125,-0.1289063 1.0898437,-0.1289063 0.9726563,0 1.5703125,0.5390625 1.5703125,1.7226563 v 0.5742187 c -2.2734375,0 -4.54687497,0.6328125 -4.54687497,2.2148438 0,1.31249997 1.66406247,1.59374997 2.64843747,1.59374997 1.1015625,0 1.8046875,-0.59765625 2.0976563,-1.23046877 0,0.52734377 0,1.148437525 1.4414062,1.148437525 h 0.7382813 c 0.3046875,0 0.4101562,0 0.4101562,-0.316406255 0,-0.3046875 -0.1289062,-0.3046875 -0.328125,-0.3046875 -0.9023437,-0.0117188 -0.9023437,-0.234375 -0.9023437,-0.57421877 z m -1.5585938,2.296875 c 0,1.34765627 -1.2070312,1.60546877 -1.6640625,1.60546877 -0.703125,0 -1.3007812,-0.46875 -1.3007812,-1.13671877 0,-1.3007812 1.5585937,-1.7460937 2.9648437,-1.8164062 z m 0,0"
       style="fill:#000000;fill-opacity:1;fill-rule:nonzero;stroke:none"
       aria-label="a"
       transform="matrix(1.3333333,0,0,1.3333333,488.804,18.242667)" />
    <path
       id="path20"
       d="m 5.7187422,-3.3173281 h 3.9609375 c 0.1992187,0 0.4570313,0 0.4570313,-0.2578125 0,-0.2695313 -0.2343751,-0.2695313 -0.4570313,-0.2695313 H 5.7187422 v -3.9609375 c 0,-0.1992187 0,-0.4570312 -0.2578125,-0.4570312 -0.2695313,0 -0.2695313,0.2460937 -0.2695313,0.4570312 v 3.9609375 H 1.2304609 c -0.1992187,0 -0.45703121,0 -0.45703121,0.2578125 0,0.2695313 0.24609371,0.2695313 0.45703121,0.2695313 h 3.9609375 v 3.96093747 c 0,0.19921875 0,0.45703123 0.2578125,0.45703123 0.2695313,0 0.2695313,-0.24609373 0.2695313,-0.45703123 z m 0,0"
       style="fill:#000000;fill-opacity:1;fill-rule:nonzero;stroke:none"
       aria-label="+"
       transform="matrix(1.3333333,0,0,1.3333333,547.22267,18.774667)" />
    <path
       id="path21"
       d="m 5.401125,-6.1292656 c 0,-0.2695313 0,-0.3632813 -0.2109375,-0.3632813 -0.082031,0 -0.1171875,0 -0.328125,0.1289063 -0.058594,0.035156 -0.2109375,0.140625 -0.2929688,0.1757812 -0.3984375,-0.2226562 -0.9257812,-0.3046875 -1.4414062,-0.3046875 -0.4335938,0 -2.578125,0 -2.578125,1.8632813 0,1.5 1.7695312,1.8164062 2.2148437,1.8867187 0.3867188,0.070312 0.8671875,0.1640625 0.9257813,0.1640625 0.5742187,0.1289063 1.1367187,0.4804688 1.1367187,1.0898438 0,1.10156247 -1.3007812,1.10156247 -1.6054687,1.10156247 -0.7265625,0 -1.6289063,-0.234375 -2.0273438,-1.61718747 -0.09375,-0.2929688 -0.1054687,-0.3046875 -0.35156245,-0.3046875 -0.29296875,0 -0.29296875,0.046875 -0.29296875,0.375 v 1.65234372 c 0,0.26953125 0,0.36328125 0.2109375,0.36328125 0.09375,0 0.12890625,0 0.4101562,-0.22265625 l 0.375,-0.26953125 c 0.6445313,0.4921875 1.4179688,0.4921875 1.6757813,0.4921875 0.796875,0 2.5898437,-0.1640625 2.5898437,-2.07421877 0,-0.6914062 -0.375,-1.1601562 -0.6679687,-1.4179687 -0.5859375,-0.4921875 -1.0664063,-0.5742188 -1.8398438,-0.7265625 -0.9257812,-0.1523438 -1.78125,-0.3046875 -1.78125,-0.9960938 0,-0.9375 1.2773438,-0.9375 1.5703125,-0.9375 1.59375,0 1.6875,1.0078125 1.7109375,1.3710938 0.011719,0.1757812 0.1289063,0.1757812 0.3046875,0.1757812 0.2929688,0 0.2929688,-0.035156 0.2929688,-0.3632812 z m 0,0"
       style="fill:#000000;fill-opacity:1;fill-rule:nonzero;stroke:none"
       aria-label="s"
       transform="matrix(1.3333333,0,0,1.3333333,610.736,18.242667)" />
    <path
       id="path22"
       d="m 5.7187266,-3.3173281 h 3.9609375 c 0.1992187,0 0.4570309,0 0.4570309,-0.2578125 0,-0.2695313 -0.2343747,-0.2695313 -0.4570309,-0.2695313 H 5.7187266 v -3.9609375 c 0,-0.1992187 0,-0.4570312 -0.2578125,-0.4570312 -0.2695313,0 -0.2695313,0.2460937 -0.2695313,0.4570312 v 3.9609375 H 1.2304453 c -0.1992187,0 -0.45703124,0 -0.45703124,0.2578125 0,0.2695313 0.24609374,0.2695313 0.45703124,0.2695313 h 3.9609375 v 3.96093747 c 0,0.19921875 0,0.45703123 0.2578125,0.45703123 0.2695313,0 0.2695313,-0.24609373 0.2695313,-0.45703123 z m 0,0"
       style="fill:#000000;fill-opacity:1;fill-rule:nonzero;stroke:none"
       aria-label="+"
       transform="matrix(1.3333333,0,0,1.3333333,668.168,18.774667)" />
    <path
       id="path23"
       d="m 6.4801875,-3.1761406 c 0.328125,0 0.421875,0 0.421875,-0.3515625 0,-0.4335938 -0.1054687,-1.5117188 -0.7617187,-2.1796875 -0.609375,-0.609375 -1.40625,-0.7851563 -2.2382813,-0.7851563 -2.2382812,0 -3.45703125,1.453125 -3.45703125,3.2695313 0,2.0039062 1.47656255,3.30468747 3.64453125,3.30468747 2.1679688,0 2.8125,-1.51171877 2.8125,-1.75781247 0,-0.2226563 -0.2226562,-0.2226563 -0.3046875,-0.2226563 -0.234375,0 -0.2460937,0.046875 -0.328125,0.234375 -0.375,0.93750002 -1.3242187,1.23046877 -2.0039062,1.23046877 -2.0859375,0 -2.0976563,-1.93359377 -2.0976563,-2.74218747 z m -4.3125,-0.4101563 c 0.023437,-0.5859375 0.035156,-1.1484375 0.3398438,-1.6640625 0.2695312,-0.4570312 0.7734375,-0.7734375 1.3945312,-0.7734375 1.5351563,0 1.6640625,1.7226563 1.6757813,2.4375 z m 0,0"
       style="fill:#000000;fill-opacity:1;fill-rule:nonzero;stroke:none"
       aria-label="e"
       transform="matrix(1.3333333,0,0,1.3333333,731.016,18.242667)" />
    <path
       id="path24"
       d="m 90.71011,-8.00304 v -76.33"
       style="fill:none;stroke:#000000;stroke-width:0.79701;stroke-linecap:butt;stroke-linejoin:miter;stroke-miterlimit:10;stroke-dasharray:none;stroke-opacity:1"
       transform="matrix(1.3333333,0,0,-1.3333333,10.256,13.992)" />
    <path
       id="path25"
       d="M -1.55415,2.0722 C -1.42464,1.29512 0,0.1295 0.38852,0 0,-0.1295 -1.42464,-1.29512 -1.55415,-2.0722"
       style="fill:none;stroke:#000000;stroke-width:0.6376;stroke-linecap:round;stroke-linejoin:round;stroke-miterlimit:10;stroke-dasharray:none;stroke-opacity:1"
       transform="matrix(0,1.3333333,1.3333333,0,131.20281,126.43605)" />
    <g
       id="g25"
       aria-label="N(0,50)"
       transform="matrix(1.3333333,0,0,1.3333333,96.417333,146.68267)">
      <path
         id="path26"
         d="m 4.3950078,-8.2375859 c 0.2578125,0.75 0.5742188,1.828125 1.21875,3.5859375 0.9023438,2.4492187 1.3007813,3.328125 2.1796875,4.69921871 0.1992188,0.29296875 0.2109375,0.31640625 0.3398438,0.31640625 0.1992187,0 0.5039062,-0.17578125 0.65625,-0.29296875 0.1992187,-0.1875 0.2226562,-0.19921875 0.375,-0.90234375 C 10.031727,-4.6047734 11.12157,-8.5305547 11.40282,-9.1985234 c 0.01172,-0.023437 0.304688,-0.5742188 2.0625,-0.5976563 0.292969,-0.011719 0.5625,-0.7734373 0.5625,-1.0898433 0,-0.234375 -0.08203,-0.234375 -0.28125,-0.234375 -1.441406,0 -2.085937,0.609375 -2.261718,0.796875 -0.398438,0.5156246 -0.738282,1.5585933 -1.40625,3.9609371 -0.4921879,1.828125 -0.9609379,3.6914062 -1.3945317,5.54296871 C 7.8871953,-2.0032109 7.4418828,-3.1399297 6.7621953,-4.9914922 6.0004766,-7.0305547 5.5317266,-8.5188359 5.1450078,-9.8078984 c -0.082031,-0.2929686 -0.09375,-0.3046876 -0.2226562,-0.3046876 -0.035156,0 -0.3164063,0 -0.7382813,0.3398438 -0.140625,0.1289063 -0.1523437,0.2578125 -0.1640625,0.421875 -0.4101562,3.8203125 -1.7578125,7.5820313 -2.1445312,8.2734375 -0.1054688,0.22265626 -0.28125,0.48046876 -0.5742188,0.48046876 -0.140625,0 -0.70312499,-0.0820313 -1.06640624,-0.42187496 -0.0820313,-0.058594 -0.10546875,-0.058594 -0.1171875,-0.058594 -0.234375,0 -0.52734375,0.71484376 -0.52734375,1.06640626 0,0.4453125 0.8671875,0.7265625 1.265625,0.7265625 0.92578129,0 1.65234379,-2.01562496 1.88671879,-2.68359376 0.9257812,-2.5898437 1.3710937,-4.734375 1.6523437,-6.269531 z m 0,0"
         style="fill:#000000;fill-opacity:1;fill-rule:nonzero;stroke:none" />
      <path
         id="path27"
         d="m 18.545398,3.4811641 c 0,-0.035156 0,-0.070312 -0.246093,-0.3046875 -1.429688,-1.453125 -2.238282,-3.82031254 -2.238282,-6.75 0,-2.7773438 0.679688,-5.1796875 2.34375,-6.8671876 0.140625,-0.128906 0.140625,-0.164062 0.140625,-0.199219 0,-0.09375 -0.07031,-0.117187 -0.128906,-0.117187 -0.1875,0 -1.359375,1.0312498 -2.0625,2.4374998 -0.738281,1.453125 -1.066406,2.9882813 -1.066406,4.7460938 0,1.2773437 0.199219,2.98828121 0.949219,4.52343746 0.84375,1.72265624 2.015625,2.64843754 2.179687,2.64843754 0.05859,0 0.128906,-0.023437 0.128906,-0.1171875 z m 7.21875,-8.0742188 c 0,-1.1835937 -0.07031,-2.34375 -0.585937,-3.4335937 -0.585938,-1.1953125 -1.617188,-1.5117188 -2.320313,-1.5117188 -0.832031,0 -1.851562,0.421875 -2.378906,1.6054688 -0.410156,0.9023437 -0.550781,1.7929687 -0.550781,3.3398437 0,1.3945313 0.105469,2.4375 0.621094,3.4570313 0.5625,1.08984371 1.546875,1.44140621 2.296875,1.44140621 1.242187,0 1.957031,-0.75 2.378906,-1.58203121 0.515625,-1.078125 0.539062,-2.484375 0.539062,-3.3164063 z M 22.84618,0.01241406 c -0.46875,0 -1.394532,-0.2578125 -1.664063,-1.81640626 -0.164062,-0.8671875 -0.164062,-1.9570312 -0.164062,-2.953125 0,-1.1835937 0,-2.2382812 0.234375,-3.09375 0.246093,-0.9609375 0.972656,-1.3945312 1.59375,-1.3945312 0.539062,0 1.371093,0.328125 1.640625,1.5585937 0.1875,0.8203125 0.1875,1.9453125 0.1875,2.9296875 0,0.9609375 0,2.0507813 -0.152344,2.9179688 -0.269531,1.58203121 -1.183594,1.85156246 -1.675781,1.85156246 z m 0,0"
         style="fill:#000000;fill-opacity:1;fill-rule:nonzero;stroke:none" />
      <path
         id="path28"
         d="m 29.168445,0.05928906 c 0,-0.83203125 -0.28125,-1.45312496 -0.867187,-1.45312496 -0.457031,0 -0.691406,0.375 -0.691406,0.69140621 0,0.31640625 0.222656,0.7031250025 0.703125,0.7031250025 0.1875,0 0.351562,-0.0585937525 0.480468,-0.1875000025 0.02344,-0.0234375 0.04687,-0.0234375 0.05859,-0.0234375 0.02344,0 0.02344,0.19921875 0.02344,0.26953125 0,0.46875 -0.08203,1.40625004 -0.914063,2.33203124 -0.164062,0.1757813 -0.164062,0.2109375 -0.164062,0.234375 0,0.070312 0.08203,0.140625 0.152343,0.140625 0.105469,0 1.21875,-1.0546875 1.21875,-2.70703124 z m 0,0"
         style="fill:#000000;fill-opacity:1;fill-rule:nonzero;stroke:none" />
      <path
         id="path29"
         d="m 34.503406,-8.2141484 c 0.609375,0.1992187 1.113282,0.2109375 1.277344,0.2109375 1.617188,0 2.648438,-1.1953125 2.648438,-1.3945313 0,-0.058594 -0.02344,-0.1289062 -0.117188,-0.1289062 -0.02344,0 -0.05859,0 -0.1875,0.058594 -0.796875,0.3515625 -1.488281,0.3867188 -1.863281,0.3867188 -0.949219,0 -1.617188,-0.28125 -1.886719,-0.3984375 -0.105469,-0.046875 -0.128906,-0.046875 -0.152344,-0.046875 -0.105468,0 -0.105468,0.09375 -0.105468,0.3164062 v 4.265625 c 0,0.2578125 0,0.3398438 0.164062,0.3398438 0.07031,0 0.09375,-0.011719 0.234375,-0.1875 0.398438,-0.5859375 1.078125,-0.9257813 1.792969,-0.9257813 0.761719,0 1.136719,0.703125 1.242187,0.9375 0.246094,0.5625 0.257813,1.265625 0.257813,1.8164063 0,0.5390625 0,1.359375 -0.398438,2.00390621 -0.316406,0.515625 -0.878906,0.87890625 -1.5,0.87890625 -0.949218,0 -1.886718,-0.64453125 -2.144531,-1.69921876 0.07031,0.035156 0.164063,0.046875 0.234375,0.046875 0.246094,0 0.632813,-0.140625 0.632813,-0.6328125 0,-0.3984375 -0.28125,-0.6328125 -0.632813,-0.6328125 -0.257812,0 -0.632812,0.1289063 -0.632812,0.6914063 0,1.21875 0.972656,2.61328121 2.566406,2.61328121 1.617187,0 3.046875,-1.37109371 3.046875,-3.18750001 0,-1.7109375 -1.148438,-3.1289062 -2.660156,-3.1289062 -0.820313,0 -1.453125,0.3632812 -1.816407,0.7617187 z m 11.607422,3.6210937 c 0,-1.1835937 -0.07031,-2.34375 -0.585937,-3.4335937 -0.585938,-1.1953125 -1.617188,-1.5117188 -2.320313,-1.5117188 -0.832031,0 -1.851562,0.421875 -2.378906,1.6054688 -0.410156,0.9023437 -0.550781,1.7929687 -0.550781,3.3398437 0,1.3945313 0.105468,2.4375 0.621093,3.4570313 0.5625,1.08984371 1.546875,1.44140621 2.296875,1.44140621 1.242188,0 1.957032,-0.75 2.378907,-1.58203121 0.515625,-1.078125 0.539062,-2.484375 0.539062,-3.3164063 z m -2.917969,4.60546876 c -0.46875,0 -1.394531,-0.2578125 -1.664062,-1.81640626 -0.164063,-0.8671875 -0.164063,-1.9570312 -0.164063,-2.953125 0,-1.1835937 0,-2.2382812 0.234375,-3.09375 0.246094,-0.9609375 0.972657,-1.3945312 1.59375,-1.3945312 0.539063,0 1.371094,0.328125 1.640625,1.5585937 0.1875,0.8203125 0.1875,1.9453125 0.1875,2.9296875 0,0.9609375 0,2.0507813 -0.152343,2.9179688 -0.269532,1.58203121 -1.183594,1.85156246 -1.675782,1.85156246 z m 7.561524,-3.58593746 c 0,-1.0898438 -0.140625,-2.8710938 -0.949219,-4.5351563 -0.84375,-1.7109375 -2.015625,-2.6484373 -2.179687,-2.6484373 -0.05859,0 -0.128907,0.02344 -0.128907,0.117187 0,0.03516 0,0.07031 0.246094,0.316407 1.441406,1.4414058 2.238281,3.8085933 2.238281,6.7382808 0,2.77734376 -0.667968,5.1796875 -2.332031,6.8671875 -0.152344,0.1289063 -0.152344,0.1640625 -0.152344,0.1992188 0,0.09375 0.07031,0.1171875 0.128907,0.1171875 0.1875,0 1.371093,-1.03125 2.074218,-2.4375 0.726563,-1.46484379 1.054688,-3.0117188 1.054688,-4.734375 z m 0,0"
         style="fill:#000000;fill-opacity:1;fill-rule:nonzero;stroke:none" />
    </g>
    <path
       id="path30"
       d="M 175.75055,-8.50368 V -84.33304"
       style="fill:none;stroke:#000000;stroke-width:0.79701;stroke-linecap:butt;stroke-linejoin:miter;stroke-miterlimit:10;stroke-dasharray:none;stroke-opacity:1"
       transform="matrix(1.3333333,0,0,-1.3333333,10.256,13.992)" />
    <path
       id="path31"
       d="M -1.55415,2.0722 C -1.42464,1.29512 0,0.1295 0.38852,0 0,-0.1295 -1.42464,-1.29512 -1.55415,-2.0722"
       style="fill:none;stroke:#000000;stroke-width:0.6376;stroke-linecap:round;stroke-linejoin:round;stroke-miterlimit:10;stroke-dasharray:none;stroke-opacity:1"
       transform="matrix(0,1.3333333,1.3333333,0,244.59007,126.43605)" />
    <g
       id="g31"
       aria-label="N(0,10)"
       transform="matrix(1.3333333,0,0,1.3333333,209.804,146.68267)">
      <path
         id="path32"
         d="m 4.3950469,-8.2375859 c 0.2578125,0.75 0.5742187,1.828125 1.21875,3.5859375 0.9023437,2.4492187 1.3007812,3.328125 2.1796875,4.69921871 0.1992187,0.29296875 0.2109375,0.31640625 0.3398437,0.31640625 0.1992188,0 0.5039063,-0.17578125 0.65625,-0.29296875 0.1992188,-0.1875 0.2226563,-0.19921875 0.375,-0.90234375 0.8671879,-3.77343746 1.9570309,-7.69921876 2.2382809,-8.36718746 0.01172,-0.023437 0.304688,-0.5742188 2.0625,-0.5976563 0.292969,-0.011719 0.5625,-0.7734373 0.5625,-1.0898433 0,-0.234375 -0.08203,-0.234375 -0.28125,-0.234375 -1.441406,0 -2.085937,0.609375 -2.261718,0.796875 -0.398438,0.5156246 -0.738282,1.5585933 -1.40625,3.9609371 -0.4921879,1.828125 -0.9609379,3.6914062 -1.3945316,5.54296871 C 7.8872344,-2.0032109 7.4419219,-3.1399297 6.7622344,-4.9914922 6.0005156,-7.0305547 5.5317656,-8.5188359 5.1450469,-9.8078984 c -0.082031,-0.2929686 -0.09375,-0.3046876 -0.2226563,-0.3046876 -0.035156,0 -0.3164062,0 -0.7382812,0.3398438 -0.140625,0.1289063 -0.1523438,0.2578125 -0.1640625,0.421875 -0.4101563,3.8203125 -1.7578125,7.5820313 -2.1445313,8.2734375 -0.1054687,0.22265626 -0.28125,0.48046876 -0.5742187,0.48046876 -0.140625,0 -0.70312503,-0.0820313 -1.06640628,-0.42187496 -0.0820313,-0.058594 -0.10546875,-0.058594 -0.1171875,-0.058594 -0.234375,0 -0.52734375,0.71484376 -0.52734375,1.06640626 0,0.4453125 0.8671875,0.7265625 1.265625,0.7265625 0.92578123,0 1.65234373,-2.01562496 1.88671873,-2.68359376 0.9257813,-2.5898437 1.3710938,-4.734375 1.6523438,-6.269531 z m 0,0"
         style="fill:#000000;fill-opacity:1;fill-rule:nonzero;stroke:none" />
      <path
         id="path33"
         d="m 18.545437,3.4811641 c 0,-0.035156 0,-0.070312 -0.246093,-0.3046875 -1.429688,-1.453125 -2.238282,-3.82031254 -2.238282,-6.75 0,-2.7773438 0.679688,-5.1796875 2.34375,-6.8671876 0.140625,-0.128906 0.140625,-0.164062 0.140625,-0.199219 0,-0.09375 -0.07031,-0.117187 -0.128906,-0.117187 -0.1875,0 -1.359375,1.0312498 -2.0625,2.4374998 -0.738281,1.453125 -1.066406,2.9882813 -1.066406,4.7460938 0,1.2773437 0.199219,2.98828121 0.949219,4.52343746 0.84375,1.72265624 2.015625,2.64843754 2.179687,2.64843754 0.05859,0 0.128906,-0.023437 0.128906,-0.1171875 z m 7.21875,-8.0742188 c 0,-1.1835937 -0.07031,-2.34375 -0.585937,-3.4335937 -0.585938,-1.1953125 -1.617188,-1.5117188 -2.320313,-1.5117188 -0.832031,0 -1.851562,0.421875 -2.378906,1.6054688 -0.410156,0.9023437 -0.550781,1.7929687 -0.550781,3.3398437 0,1.3945313 0.105469,2.4375 0.621094,3.4570313 0.5625,1.08984371 1.546875,1.44140621 2.296875,1.44140621 1.242187,0 1.957031,-0.75 2.378906,-1.58203121 0.515625,-1.078125 0.539062,-2.484375 0.539062,-3.3164063 z m -2.917968,4.60546876 c -0.46875,0 -1.394532,-0.2578125 -1.664063,-1.81640626 -0.164062,-0.8671875 -0.164062,-1.9570312 -0.164062,-2.953125 0,-1.1835937 0,-2.2382812 0.234375,-3.09375 0.246093,-0.9609375 0.972656,-1.3945312 1.59375,-1.3945312 0.539062,0 1.371093,0.328125 1.640625,1.5585937 0.1875,0.8203125 0.1875,1.9453125 0.1875,2.9296875 0,0.9609375 0,2.0507813 -0.152344,2.9179688 -0.269531,1.58203121 -1.183594,1.85156246 -1.675781,1.85156246 z m 0,0"
         style="fill:#000000;fill-opacity:1;fill-rule:nonzero;stroke:none" />
      <path
         id="path34"
         d="m 29.168484,0.05928906 c 0,-0.83203125 -0.28125,-1.45312496 -0.867187,-1.45312496 -0.457031,0 -0.691406,0.375 -0.691406,0.69140621 0,0.31640625 0.222656,0.7031250025 0.703125,0.7031250025 0.1875,0 0.351562,-0.0585937525 0.480468,-0.1875000025 0.02344,-0.0234375 0.04687,-0.0234375 0.05859,-0.0234375 0.02344,0 0.02344,0.19921875 0.02344,0.26953125 0,0.46875 -0.08203,1.40625004 -0.914063,2.33203124 -0.164062,0.1757813 -0.164062,0.2109375 -0.164062,0.234375 0,0.070312 0.08203,0.140625 0.152343,0.140625 0.105469,0 1.21875,-1.0546875 1.21875,-2.70703124 z m 0,0"
         style="fill:#000000;fill-opacity:1;fill-rule:nonzero;stroke:none" />
      <path
         id="path35"
         d="m 36.80032,-9.1985234 c 0,-0.328125 0,-0.3398438 -0.292968,-0.3398438 -0.339844,0.3867188 -1.066407,0.9140625 -2.542969,0.9140625 v 0.421875 c 0.339844,0 1.054687,0 1.839844,-0.375 v 7.4765625 c 0,0.51562501 -0.04687,0.69140626 -1.300782,0.69140626 H 34.058133 V 6.953125e-4 c 0.386719,-0.0234375025 1.78125,-0.0234375025 2.25,-0.0234375025 0.46875,0 1.851562,0 2.238281,0.0234375025 V -0.40946094 h -0.445312 c -1.265625,0 -1.300782,-0.17578125 -1.300782,-0.69140626 z m 9.310547,4.6054687 c 0,-1.1835937 -0.07031,-2.34375 -0.585937,-3.4335937 -0.585938,-1.1953125 -1.617188,-1.5117188 -2.320313,-1.5117188 -0.832031,0 -1.851562,0.421875 -2.378906,1.6054688 -0.410156,0.9023437 -0.550781,1.7929687 -0.550781,3.3398437 0,1.3945313 0.105468,2.4375 0.621093,3.4570313 0.5625,1.08984371 1.546875,1.44140621 2.296875,1.44140621 1.242188,0 1.957032,-0.75 2.378907,-1.58203121 0.515625,-1.078125 0.539062,-2.484375 0.539062,-3.3164063 z m -2.917969,4.60546876 c -0.46875,0 -1.394531,-0.2578125 -1.664062,-1.81640626 -0.164063,-0.8671875 -0.164063,-1.9570312 -0.164063,-2.953125 0,-1.1835937 0,-2.2382812 0.234375,-3.09375 0.246094,-0.9609375 0.972657,-1.3945312 1.59375,-1.3945312 0.539063,0 1.371094,0.328125 1.640625,1.5585937 0.1875,0.8203125 0.1875,1.9453125 0.1875,2.9296875 0,0.9609375 0,2.0507813 -0.152343,2.9179688 -0.269532,1.58203121 -1.183594,1.85156246 -1.675782,1.85156246 z m 7.561524,-3.58593746 c 0,-1.0898438 -0.140625,-2.8710938 -0.949219,-4.5351563 -0.84375,-1.7109375 -2.015625,-2.6484373 -2.179687,-2.6484373 -0.05859,0 -0.128907,0.02344 -0.128907,0.117187 0,0.03516 0,0.07031 0.246094,0.316407 1.441406,1.4414058 2.238281,3.8085933 2.238281,6.7382808 0,2.77734376 -0.667968,5.1796875 -2.332031,6.8671875 -0.152344,0.1289063 -0.152344,0.1640625 -0.152344,0.1992188 0,0.09375 0.07031,0.1171875 0.128907,0.1171875 0.1875,0 1.371093,-1.03125 2.074218,-2.4375 0.726563,-1.46484379 1.054688,-3.0117188 1.054688,-4.734375 z m 0,0"
         style="fill:#000000;fill-opacity:1;fill-rule:nonzero;stroke:none" />
    </g>
    <path
       id="path36"
       d="M 249.45157,-8.50368 V -84.33304"
       style="fill:none;stroke:#000000;stroke-width:0.79701;stroke-linecap:butt;stroke-linejoin:miter;stroke-miterlimit:10;stroke-dasharray:none;stroke-opacity:1"
       transform="matrix(1.3333333,0,0,-1.3333333,10.256,13.992)" />
    <path
       id="path37"
       d="M -1.55415,2.0722 C -1.42464,1.29512 0,0.1295 0.38852,0 0,-0.1295 -1.42464,-1.29512 -1.55415,-2.0722"
       style="fill:none;stroke:#000000;stroke-width:0.6376;stroke-linecap:round;stroke-linejoin:round;stroke-miterlimit:10;stroke-dasharray:none;stroke-opacity:1"
       transform="matrix(0,1.3333333,1.3333333,0,342.85809,126.43605)" />
    <g
       id="g37"
       aria-label="N(0,10)"
       transform="matrix(1.3333333,0,0,1.3333333,308.07067,146.68267)">
      <path
         id="path38"
         d="m 4.3942656,-8.2375859 c 0.2578125,0.75 0.5742188,1.828125 1.21875,3.5859375 0.9023438,2.4492187 1.3007813,3.328125 2.1796875,4.69921871 0.1992188,0.29296875 0.2109375,0.31640625 0.3398438,0.31640625 0.1992187,0 0.5039062,-0.17578125 0.65625,-0.29296875 0.1992187,-0.1875 0.2226562,-0.19921875 0.375,-0.90234375 0.8671871,-3.77343746 1.9570311,-7.69921876 2.2382811,-8.36718746 0.01172,-0.023437 0.304688,-0.5742188 2.0625,-0.5976563 0.292969,-0.011719 0.5625,-0.7734373 0.5625,-1.0898433 0,-0.234375 -0.08203,-0.234375 -0.28125,-0.234375 -1.441406,0 -2.085937,0.609375 -2.261719,0.796875 -0.398437,0.5156246 -0.738281,1.5585933 -1.40625,3.9609371 -0.4921871,1.828125 -0.9609371,3.6914062 -1.3945309,5.54296871 C 7.8864531,-2.0032109 7.4411406,-3.1399297 6.7614531,-4.9914922 5.9997344,-7.0305547 5.5309844,-8.5188359 5.1442656,-9.8078984 c -0.082031,-0.2929686 -0.09375,-0.3046876 -0.2226562,-0.3046876 -0.035156,0 -0.3164063,0 -0.7382813,0.3398438 -0.140625,0.1289063 -0.1523437,0.2578125 -0.1640625,0.421875 -0.4101562,3.8203125 -1.7578125,7.5820313 -2.1445312,8.2734375 -0.1054688,0.22265626 -0.28125,0.48046876 -0.5742188,0.48046876 -0.140625,0 -0.70312497,-0.0820313 -1.06640622,-0.42187496 -0.0820313,-0.058594 -0.10546875,-0.058594 -0.1171875,-0.058594 -0.234375,0 -0.52734375,0.71484376 -0.52734375,1.06640626 0,0.4453125 0.8671875,0.7265625 1.265625,0.7265625 0.92578127,0 1.65234377,-2.01562496 1.88671877,-2.68359376 0.9257812,-2.5898437 1.3710937,-4.734375 1.6523437,-6.269531 z m 0,0"
         style="fill:#000000;fill-opacity:1;fill-rule:nonzero;stroke:none" />
      <path
         id="path39"
         d="m 18.544656,3.4811641 c 0,-0.035156 0,-0.070312 -0.246093,-0.3046875 -1.429688,-1.453125 -2.238282,-3.82031254 -2.238282,-6.75 0,-2.7773438 0.679688,-5.1796875 2.34375,-6.8671876 0.140625,-0.128906 0.140625,-0.164062 0.140625,-0.199219 0,-0.09375 -0.07031,-0.117187 -0.128906,-0.117187 -0.1875,0 -1.359375,1.0312498 -2.0625,2.4374998 -0.738281,1.453125 -1.066406,2.9882813 -1.066406,4.7460938 0,1.2773437 0.199219,2.98828121 0.949219,4.52343746 0.84375,1.72265624 2.015625,2.64843754 2.179687,2.64843754 0.05859,0 0.128906,-0.023437 0.128906,-0.1171875 z m 7.21875,-8.0742188 c 0,-1.1835937 -0.07031,-2.34375 -0.585937,-3.4335937 -0.585938,-1.1953125 -1.617188,-1.5117188 -2.320313,-1.5117188 -0.832031,0 -1.851562,0.421875 -2.378906,1.6054688 -0.410156,0.9023437 -0.550781,1.7929687 -0.550781,3.3398437 0,1.3945313 0.105469,2.4375 0.621094,3.4570313 0.5625,1.08984371 1.546875,1.44140621 2.296875,1.44140621 1.242187,0 1.957031,-0.75 2.378906,-1.58203121 0.515625,-1.078125 0.539062,-2.484375 0.539062,-3.3164063 z m -2.917968,4.60546876 c -0.46875,0 -1.394532,-0.2578125 -1.664063,-1.81640626 -0.164062,-0.8671875 -0.164062,-1.9570312 -0.164062,-2.953125 0,-1.1835937 0,-2.2382812 0.234375,-3.09375 0.246093,-0.9609375 0.972656,-1.3945312 1.59375,-1.3945312 0.539062,0 1.371093,0.328125 1.640625,1.5585937 0.1875,0.8203125 0.1875,1.9453125 0.1875,2.9296875 0,0.9609375 0,2.0507813 -0.152344,2.9179688 -0.269531,1.58203121 -1.183594,1.85156246 -1.675781,1.85156246 z m 0,0"
         style="fill:#000000;fill-opacity:1;fill-rule:nonzero;stroke:none" />
      <path
         id="path40"
         d="m 29.167703,0.05928906 c 0,-0.83203125 -0.28125,-1.45312496 -0.867187,-1.45312496 -0.457032,0 -0.691407,0.375 -0.691407,0.69140621 0,0.31640625 0.222657,0.7031250025 0.703125,0.7031250025 0.1875,0 0.351563,-0.0585937525 0.480469,-0.1875000025 0.02344,-0.0234375 0.04687,-0.0234375 0.05859,-0.0234375 0.02344,0 0.02344,0.19921875 0.02344,0.26953125 0,0.46875 -0.08203,1.40625004 -0.914062,2.33203124 -0.164063,0.1757813 -0.164063,0.2109375 -0.164063,0.234375 0,0.070312 0.08203,0.140625 0.152344,0.140625 0.105469,0 1.21875,-1.0546875 1.21875,-2.70703124 z m 0,0"
         style="fill:#000000;fill-opacity:1;fill-rule:nonzero;stroke:none" />
      <path
         id="path41"
         d="m 36.802469,-9.1985234 c 0,-0.328125 0,-0.3398438 -0.292969,-0.3398438 -0.339844,0.3867188 -1.066406,0.9140625 -2.542969,0.9140625 v 0.421875 c 0.339844,0 1.054688,0 1.839844,-0.375 v 7.4765625 c 0,0.51562501 -0.04687,0.69140626 -1.300781,0.69140626 H 34.060281 V 6.953125e-4 c 0.386719,-0.0234375025 1.78125,-0.0234375025 2.25,-0.0234375025 0.46875,0 1.851563,0 2.238282,0.0234375025 V -0.40946094 H 38.10325 c -1.265625,0 -1.300781,-0.17578125 -1.300781,-0.69140626 z m 9.307617,4.6054687 c 0,-1.1835937 -0.07031,-2.34375 -0.585938,-3.4335937 -0.585937,-1.1953125 -1.617187,-1.5117188 -2.320312,-1.5117188 -0.832031,0 -1.851563,0.421875 -2.378906,1.6054688 -0.410157,0.9023437 -0.550782,1.7929687 -0.550782,3.3398437 0,1.3945313 0.105469,2.4375 0.621094,3.4570313 0.5625,1.08984371 1.546875,1.44140621 2.296875,1.44140621 1.242188,0 1.957031,-0.75 2.378906,-1.58203121 0.515625,-1.078125 0.539063,-2.484375 0.539063,-3.3164063 z m -2.917969,4.60546876 c -0.46875,0 -1.394531,-0.2578125 -1.664062,-1.81640626 -0.164063,-0.8671875 -0.164063,-1.9570312 -0.164063,-2.953125 0,-1.1835937 0,-2.2382812 0.234375,-3.09375 0.246094,-0.9609375 0.972656,-1.3945312 1.59375,-1.3945312 0.539063,0 1.371094,0.328125 1.640625,1.5585937 0.1875,0.8203125 0.1875,1.9453125 0.1875,2.9296875 0,0.9609375 0,2.0507813 -0.152344,2.9179688 -0.269531,1.58203121 -1.183593,1.85156246 -1.675781,1.85156246 z M 50.75657,-3.5735234 c 0,-1.0898438 -0.140625,-2.8710938 -0.949218,-4.5351563 -0.84375,-1.7109375 -2.015625,-2.6484373 -2.179688,-2.6484373 -0.05859,0 -0.128906,0.02344 -0.128906,0.117187 0,0.03516 0,0.07031 0.246094,0.316407 1.441406,1.4414058 2.238281,3.8085933 2.238281,6.7382808 0,2.77734376 -0.667969,5.1796875 -2.332031,6.8671875 -0.152344,0.1289063 -0.152344,0.1640625 -0.152344,0.1992188 0,0.09375 0.07031,0.1171875 0.128906,0.1171875 0.1875,0 1.371094,-1.03125 2.074219,-2.4375 0.726562,-1.46484379 1.054687,-3.0117188 1.054687,-4.734375 z m 0,0"
         style="fill:#000000;fill-opacity:1;fill-rule:nonzero;stroke:none" />
    </g>
    <path
       id="path42"
       d="M 362.8388,-6.70787 V -33.30913"
       style="fill:none;stroke:#000000;stroke-width:0.79701;stroke-linecap:butt;stroke-linejoin:miter;stroke-miterlimit:10;stroke-dasharray:none;stroke-opacity:1"
       transform="matrix(1.3333333,0,0,-1.3333333,10.256,13.992)" />
    <path
       id="path43"
       d="M -1.55415,2.0722 C -1.42464,1.29512 0,0.1295 0.38852,0 0,-0.1295 -1.42464,-1.29512 -1.55415,-2.0722"
       style="fill:none;stroke:#000000;stroke-width:0.6376;stroke-linecap:round;stroke-linejoin:round;stroke-miterlimit:10;stroke-dasharray:none;stroke-opacity:1"
       transform="matrix(0,1.3333333,1.3333333,0,494.04107,58.404173)" />
    <g
       id="g43"
       aria-label="N(0,σ&#10;P&#10;L)"
       transform="matrix(1.3333333,0,0,1.3333333,450.61333,78.652)">
      <path
         id="path44"
         d="m 4.3944922,-8.2380234 c 0.2578125,0.75 0.5742187,1.828125 1.21875,3.5859375 0.9023437,2.4492187 1.3007812,3.328125 2.1796875,4.69921871 0.1992187,0.29296875 0.2109375,0.31640625 0.3398437,0.31640625 0.1992188,0 0.5039063,-0.17578125 0.65625,-0.29296875 0.1992188,-0.1875 0.2226563,-0.19921875 0.375,-0.90234375 0.8671876,-3.77343746 1.9570316,-7.69921876 2.2382816,-8.36718746 0.01172,-0.023437 0.304687,-0.5742188 2.0625,-0.5976563 0.292968,-0.011719 0.5625,-0.7734378 0.5625,-1.0898438 0,-0.234375 -0.08203,-0.234375 -0.28125,-0.234375 -1.441407,0 -2.085938,0.609375 -2.261719,0.796875 -0.398438,0.5156251 -0.738281,1.5585938 -1.40625,3.9609376 -0.4921876,1.828125 -0.9609376,3.6914062 -1.3945313,5.54296871 C 7.8866797,-2.0036484 7.4413672,-3.1403672 6.7616797,-4.9919297 5.9999609,-7.0309922 5.5312109,-8.5192734 5.1444922,-9.8083359 c -0.082031,-0.2929691 -0.09375,-0.3046871 -0.2226563,-0.3046871 -0.035156,0 -0.3164062,0 -0.7382812,0.3398433 -0.140625,0.1289063 -0.1523438,0.2578125 -0.1640625,0.421875 -0.4101563,3.8203125 -1.7578125,7.5820313 -2.1445313,8.2734375 -0.1054687,0.22265626 -0.28125,0.48046876 -0.5742187,0.48046876 -0.140625,0 -0.70312501,-0.0820313 -1.06640626,-0.42187496 -0.0820313,-0.058594 -0.10546875,-0.058594 -0.1171875,-0.058594 -0.234375,0 -0.52734375,0.71484376 -0.52734375,1.06640626 0,0.4453125 0.8671875,0.7265625 1.265625,0.7265625 0.92578121,0 1.65234371,-2.01562496 1.88671871,-2.68359376 0.9257813,-2.5898437 1.3710938,-4.734375 1.6523438,-6.269531 z m 0,0"
         style="fill:#000000;fill-opacity:1;fill-rule:nonzero;stroke:none" />
      <path
         id="path45"
         d="m 18.544883,3.4807266 c 0,-0.035156 0,-0.070312 -0.246094,-0.3046875 -1.429687,-1.453125 -2.238281,-3.82031254 -2.238281,-6.75 0,-2.7773438 0.679687,-5.1796875 2.34375,-6.8671871 0.140625,-0.128907 0.140625,-0.164063 0.140625,-0.199219 0,-0.09375 -0.07031,-0.117188 -0.128906,-0.117188 -0.1875,0 -1.359375,1.0312503 -2.0625,2.4375003 -0.738282,1.453125 -1.066407,2.9882813 -1.066407,4.7460938 0,1.2773437 0.199219,2.98828121 0.949219,4.52343746 0.84375,1.72265624 2.015625,2.64843754 2.179688,2.64843754 0.05859,0 0.128906,-0.023437 0.128906,-0.1171875 z m 0,0"
         style="fill:#000000;fill-opacity:1;fill-rule:nonzero;stroke:none" />
      <path
         id="path46"
         d="m 26.759727,-4.5700547 c 0,-1.3828125 0,-4.8398437 -3.386719,-4.8398437 -3.398438,0 -3.398438,3.4453125 -3.398438,4.8398437 0,1.3710938 0,4.74609376 3.386719,4.74609376 3.386719,0 3.398438,-3.32812496 3.398438,-4.74609376 z m -3.386719,4.26562501 c -0.457031,0 -0.808594,-0.1875 -1.089844,-0.48046875 -0.363281,-0.36328126 -0.585937,-0.59765626 -0.585937,-3.96093746 0,-1.0078125 0,-1.921875 0.117187,-2.671875 0.199219,-1.4179688 1.230469,-1.5234375 1.546875,-1.5234375 0.457031,0 1.347656,0.2226562 1.546875,1.4296875 0.128906,0.7265625 0.128906,1.8867187 0.128906,2.765625 0,3.3867187 -0.210937,3.5859375 -0.644531,4.01953121 -0.292969,0.28125 -0.679687,0.421875 -1.019531,0.421875 z m 0,0"
         style="fill:#000000;fill-opacity:1;fill-rule:nonzero;stroke:none" />
      <path
         id="path47"
         d="m 30.213828,0.05885156 c 0,-0.83203125 -0.28125,-1.45312496 -0.867187,-1.45312496 -0.457032,0 -0.691407,0.375 -0.691407,0.69140621 0,0.31640625 0.222657,0.7031250025 0.703125,0.7031250025 0.1875,0 0.351563,-0.0585937525 0.480469,-0.1875000025 0.02344,-0.0234375 0.04687,-0.0234375 0.05859,-0.0234375 0.02344,0 0.02344,0.19921875 0.02344,0.26953125 0,0.46875 -0.08203,1.40625004 -0.914062,2.33203124 -0.164063,0.1757813 -0.164063,0.2109375 -0.164063,0.234375 0,0.070312 0.08203,0.140625 0.152344,0.140625 0.105469,0 1.21875,-1.0546875 1.21875,-2.70703124 z m 10.78711,-5.46093746 c 0.1875,0 0.65625,0 0.65625,-0.46875 0,-0.3164063 -0.269532,-0.3164063 -0.527344,-0.3164063 h -3.175781 c -2.144532,0 -3.691407,2.4023438 -3.691407,4.0898438 0,1.21874996 0.785157,2.23828121 2.074219,2.23828121 1.6875,0 3.539063,-1.81640621 3.539063,-3.97265621 0,-0.5625 -0.128907,-1.1015625 -0.46875,-1.5703125 z m -4.652344,5.26171871 c -0.726563,0 -1.253906,-0.5625 -1.253906,-1.54687501 0,-0.8671875 0.515625,-3.7148437 2.613281,-3.7148437 0.621094,0 1.3125,0.2929687 1.3125,1.40625 0,0.4921875 -0.234375,1.6992187 -0.738281,2.53125 -0.515625,0.84374996 -1.289063,1.32421871 -1.933594,1.32421871 z m 0,0"
         style="fill:#000000;fill-opacity:1;fill-rule:nonzero;stroke:none" />
      <path
         id="path48"
         d="m 44.718711,-1.0016953 h 1.6875 c 1.417969,0 2.800781,-1.03125 2.800781,-2.1445313 0,-0.7734375 -0.65625,-1.5117187 -1.96875,-1.5117187 h -3.222656 c -0.1875,0 -0.292969,0 -0.292969,0.1992187 0,0.1171875 0.08203,0.1171875 0.28125,0.1171875 0.128906,0 0.316406,0.011719 0.433594,0.011719 0.152344,0.023437 0.210937,0.058594 0.210937,0.1640625 0,0.035156 0,0.070312 -0.03516,0.1875 l -1.335937,5.3554687 c -0.09375,0.3867188 -0.117188,0.46875 -0.902344,0.46875 -0.175781,0 -0.28125,0 -0.28125,0.1875 0,0.1171875 0.117187,0.1171875 0.152344,0.1171875 0.28125,0 0.984375,-0.035156 1.265625,-0.035156 0.210937,0 0.421875,0.011719 0.632812,0.011719 0.222656,0 0.445313,0.023437 0.644531,0.023437 0.07031,0 0.199219,0 0.199219,-0.1992187 0,-0.1054688 -0.08203,-0.1054688 -0.269531,-0.1054688 -0.375,0 -0.65625,0 -0.65625,-0.1875 0,-0.058594 0.02344,-0.1054687 0.03516,-0.1640625 z m 0.714844,-2.9648438 c 0.08203,-0.3515625 0.105468,-0.375 0.539062,-0.375 h 0.949219 c 0.832031,0 1.359375,0.2695313 1.359375,0.9492188 0,0.3984375 -0.199219,1.2539062 -0.585938,1.6054687 -0.503906,0.4453125 -1.101562,0.5273438 -1.535156,0.5273438 h -1.40625 z m 0,0"
         style="fill:#000000;fill-opacity:1;fill-rule:nonzero;stroke:none" />
      <path
         id="path49"
         d="m 58.983359,-3.8669297 h -0.609375 c -0.09375,0.984375 -0.328125,3.24609376 -2.90625,3.24609376 H 53.932578 V -9.2223984 h 1.910156 v -0.6210938 c -0.703125,0.035156 -1.980468,0.035156 -2.742187,0.035156 -0.527344,0 -2.167969,0 -2.578125,-0.035156 v 0.6210938 h 1.511719 v 8.60156246 H 50.522422 V 2.578125e-4 h 8.039062 z m 0,0"
         style="fill:#000000;fill-opacity:1;fill-rule:nonzero;stroke:none" />
      <path
         id="path50"
         d="m 63.711875,-3.5739609 c 0,-1.0898438 -0.140625,-2.8710938 -0.949219,-4.5351563 -0.84375,-1.7109375 -2.015625,-2.6484378 -2.179687,-2.6484378 -0.05859,0 -0.128906,0.02344 -0.128906,0.117188 0,0.03516 0,0.07031 0.246093,0.316406 1.441407,1.4414063 2.238282,3.8085938 2.238282,6.7382813 0,2.77734376 -0.667969,5.1796875 -2.332032,6.8671875 -0.152343,0.1289063 -0.152343,0.1640625 -0.152343,0.1992188 0,0.09375 0.07031,0.1171875 0.128906,0.1171875 0.1875,0 1.371094,-1.03125 2.074219,-2.4375 0.726562,-1.46484379 1.054687,-3.0117188 1.054687,-4.734375 z m 0,0"
         style="fill:#000000;fill-opacity:1;fill-rule:nonzero;stroke:none" />
    </g>
    <path
       id="path51"
       d="M 374.1782,-56.69362 V -84.33304"
       style="fill:none;stroke:#000000;stroke-width:0.79701;stroke-linecap:butt;stroke-linejoin:miter;stroke-miterlimit:10;stroke-dasharray:none;stroke-opacity:1"
       transform="matrix(1.3333333,0,0,-1.3333333,10.256,13.992)" />
    <path
       id="path52"
       d="M -1.55415,2.0722 C -1.42464,1.29512 0,0.1295 0.38852,0 0,-0.1295 -1.42464,-1.29512 -1.55415,-2.0722"
       style="fill:none;stroke:#000000;stroke-width:0.6376;stroke-linecap:round;stroke-linejoin:round;stroke-miterlimit:10;stroke-dasharray:none;stroke-opacity:1"
       transform="matrix(0,1.3333333,1.3333333,0,509.16027,126.43605)" />
    <g
       id="g52"
       aria-label="t&#10;3&#10;(0,20)"
       transform="matrix(1.3333333,0,0,1.3333333,476.592,146.68267)">
      <path
         id="path53"
         d="m 2.884125,-5.7649297 h 1.3242188 c 0.2695312,0 0.4101562,0 0.4101562,-0.2578125 0,-0.1640625 -0.082031,-0.1640625 -0.375,-0.1640625 H 2.9895938 l 0.5273437,-2.0859375 c 0.058594,-0.1992187 0.058594,-0.234375 0.058594,-0.328125 0,-0.234375 -0.1875,-0.3632812 -0.375,-0.3632812 -0.1171875,0 -0.4453125,0.046875 -0.5625,0.5039062 l -0.5625,2.2734375 H 0.727875 c -0.28125,0 -0.41015625,0 -0.41015625,0.28125 0,0.140625 0.09375,0.140625 0.375,0.140625 H 1.9700625 l -0.9492187,3.7851563 c -0.11718755,0.5039062 -0.16406255,0.6445312 -0.16406255,0.8320312 0,0.67968751 0.48046875,1.28906251 1.27734375,1.28906251 1.453125,0 2.2265625,-2.08593751 2.2265625,-2.19140621 0,-0.082031 -0.058594,-0.1289063 -0.140625,-0.1289063 -0.035156,0 -0.082031,0 -0.1171875,0.058594 -0.011719,0.011719 -0.023437,0.023437 -0.1289062,0.2578125 C 3.6692813,-1.147742 3.0130313,-0.13992949 2.181,-0.13992949 c -0.4335937,0 -0.4570312,-0.36328125 -0.4570312,-0.6796875 0,-0.0117188 0,-0.28125001 0.046875,-0.45703121 z m 0,0"
         style="fill:#000000;fill-opacity:1;fill-rule:nonzero;stroke:none" />
      <path
         id="path54"
         d="m 7.9671328,-1.3528203 c 0.8085938,-0.2695313 1.3945313,-0.9726563 1.3945313,-1.7578125 0,-0.8203125 -0.8789063,-1.3710938 -1.8398438,-1.3710938 -1.0078125,0 -1.7578125,0.5976563 -1.7578125,1.3476563 0,0.3398437 0.2109375,0.5273437 0.5039063,0.5273437 0.3046875,0 0.5039062,-0.2226562 0.5039062,-0.515625 0,-0.4921875 -0.46875,-0.4921875 -0.609375,-0.4921875 0.3046875,-0.4921875 0.9609375,-0.6210937 1.3242188,-0.6210937 0.4101562,0 0.9492187,0.2226562 0.9492187,1.1132812 0,0.1289063 -0.011719,0.703125 -0.2695312,1.1367188 -0.3046875,0.4804687 -0.6445313,0.515625 -0.890625,0.515625 -0.082031,0.011719 -0.3164063,0.035156 -0.3867188,0.035156 -0.082031,0.011719 -0.1523437,0.023437 -0.1523437,0.1171875 0,0.1171875 0.070312,0.1171875 0.234375,0.1171875 h 0.4453125 c 0.8085937,0 1.1835937,0.66796879 1.1835937,1.65234379 0,1.34765621 -0.6914062,1.64062501 -1.125,1.64062501 -0.4335937,0 -1.171875,-0.1757813 -1.5234375,-0.7617188 0.3515625,0.058594 0.65625,-0.1640625 0.65625,-0.53906246 0,-0.36328125 -0.2695312,-0.5625 -0.5625,-0.5625 -0.234375,0 -0.5507812,0.140625 -0.5507812,0.57421875 0,0.91406251 0.9257812,1.57031251 2.0039062,1.57031251 1.21875,0 2.1210938,-0.9140625 2.1210938,-1.92187501 0,-0.8203125 -0.6210938,-1.59374999 -1.6523438,-1.80468729 z m 0,0"
         style="fill:#000000;fill-opacity:1;fill-rule:nonzero;stroke:none" />
      <path
         id="path55"
         d="m 15.21518,3.4811641 c 0,-0.035156 0,-0.070312 -0.246094,-0.3046875 -1.429688,-1.453125 -2.238281,-3.82031254 -2.238281,-6.75 0,-2.7773438 0.679687,-5.1796875 2.34375,-6.8671876 0.140625,-0.128906 0.140625,-0.164062 0.140625,-0.199219 0,-0.09375 -0.07031,-0.117187 -0.128907,-0.117187 -0.1875,0 -1.359375,1.0312498 -2.0625,2.4374998 -0.738281,1.453125 -1.066406,2.9882813 -1.066406,4.7460938 0,1.2773437 0.199219,2.98828121 0.949219,4.52343746 0.84375,1.72265624 2.015625,2.64843754 2.179687,2.64843754 0.05859,0 0.128907,-0.023437 0.128907,-0.1171875 z m 7.221679,-8.0742188 c 0,-1.1835937 -0.07031,-2.34375 -0.585937,-3.4335937 -0.585938,-1.1953125 -1.617188,-1.5117188 -2.320313,-1.5117188 -0.832031,0 -1.851562,0.421875 -2.378906,1.6054688 -0.410156,0.9023437 -0.550781,1.7929687 -0.550781,3.3398437 0,1.3945313 0.105469,2.4375 0.621094,3.4570313 0.5625,1.08984371 1.546875,1.44140621 2.296875,1.44140621 1.242187,0 1.957031,-0.75 2.378906,-1.58203121 0.515625,-1.078125 0.539062,-2.484375 0.539062,-3.3164063 z m -2.917968,4.60546876 c -0.46875,0 -1.394532,-0.2578125 -1.664063,-1.81640626 -0.164062,-0.8671875 -0.164062,-1.9570312 -0.164062,-2.953125 0,-1.1835937 0,-2.2382812 0.234375,-3.09375 0.246093,-0.9609375 0.972656,-1.3945312 1.59375,-1.3945312 0.539062,0 1.371093,0.328125 1.640625,1.5585937 0.1875,0.8203125 0.1875,1.9453125 0.1875,2.9296875 0,0.9609375 0,2.0507813 -0.152344,2.9179688 -0.269531,1.58203121 -1.183594,1.85156246 -1.675781,1.85156246 z m 0,0"
         style="fill:#000000;fill-opacity:1;fill-rule:nonzero;stroke:none" />
      <path
         id="path56"
         d="m 25.841156,0.05928906 c 0,-0.83203125 -0.28125,-1.45312496 -0.867187,-1.45312496 -0.457031,0 -0.691406,0.375 -0.691406,0.69140621 0,0.31640625 0.222656,0.7031250025 0.703125,0.7031250025 0.1875,0 0.351562,-0.0585937525 0.480468,-0.1875000025 0.02344,-0.0234375 0.04687,-0.0234375 0.05859,-0.0234375 0.02344,0 0.02344,0.19921875 0.02344,0.26953125 0,0.46875 -0.08203,1.40625004 -0.914063,2.33203124 -0.164062,0.1757813 -0.164062,0.2109375 -0.164062,0.234375 0,0.070312 0.08203,0.140625 0.152343,0.140625 0.105469,0 1.21875,-1.0546875 1.21875,-2.70703124 z m 0,0"
         style="fill:#000000;fill-opacity:1;fill-rule:nonzero;stroke:none" />
      <path
         id="path57"
         d="m 35.65268,-2.4133672 h -0.316407 c -0.04687,0.2460938 -0.164062,1.03125 -0.304687,1.265625 -0.105469,0.1289063 -0.914063,0.1289063 -1.347656,0.1289063 h -2.660157 c 0.386719,-0.328125 1.265625,-1.2421875 1.640625,-1.59375 2.179688,-2.0039063 2.988282,-2.7539063 2.988282,-4.171875 0,-1.6523438 -1.3125,-2.7539063 -2.976563,-2.7539063 -1.664062,0 -2.636719,1.4179688 -2.636719,2.6484375 0,0.7382813 0.632813,0.7382813 0.679688,0.7382813 0.292969,0 0.667969,-0.2109375 0.667969,-0.6796875 0,-0.3984375 -0.269532,-0.6679688 -0.667969,-0.6679688 -0.140625,0 -0.164063,0 -0.210938,0.011719 0.28125,-0.9726563 1.054688,-1.6289063 1.980469,-1.6289063 1.21875,0 1.96875,1.0078125 1.96875,2.3320313 0,1.21875 -0.703125,2.2851562 -1.523437,3.1992187 l -2.894532,3.24609376 V 6.953125e-4 h 5.238282 z m 7.130859,-2.1796875 c 0,-1.1835937 -0.07031,-2.34375 -0.585937,-3.4335937 -0.585938,-1.1953125 -1.617188,-1.5117188 -2.320313,-1.5117188 -0.832031,0 -1.851562,0.421875 -2.378906,1.6054688 -0.410156,0.9023437 -0.550781,1.7929687 -0.550781,3.3398437 0,1.3945313 0.105468,2.4375 0.621093,3.4570313 0.5625,1.08984371 1.546875,1.44140621 2.296875,1.44140621 1.242188,0 1.957032,-0.75 2.378907,-1.58203121 0.515625,-1.078125 0.539062,-2.484375 0.539062,-3.3164063 z M 39.86557,0.01241406 c -0.46875,0 -1.394531,-0.2578125 -1.664062,-1.81640626 -0.164063,-0.8671875 -0.164063,-1.9570312 -0.164063,-2.953125 0,-1.1835937 0,-2.2382812 0.234375,-3.09375 0.246094,-0.9609375 0.972657,-1.3945312 1.59375,-1.3945312 0.539063,0 1.371094,0.328125 1.640625,1.5585937 0.1875,0.8203125 0.1875,1.9453125 0.1875,2.9296875 0,0.9609375 0,2.0507813 -0.152343,2.9179688 -0.269532,1.58203121 -1.183594,1.85156246 -1.675782,1.85156246 z m 7.561524,-3.58593746 c 0,-1.0898438 -0.140625,-2.8710938 -0.949219,-4.5351563 -0.84375,-1.7109375 -2.015625,-2.6484373 -2.179687,-2.6484373 -0.05859,0 -0.128907,0.02344 -0.128907,0.117187 0,0.03516 0,0.07031 0.246094,0.316407 1.441406,1.4414058 2.238281,3.8085933 2.238281,6.7382808 0,2.77734376 -0.667968,5.1796875 -2.332031,6.8671875 -0.152344,0.1289063 -0.152344,0.1640625 -0.152344,0.1992188 0,0.09375 0.07031,0.1171875 0.128907,0.1171875 0.1875,0 1.371093,-1.03125 2.074218,-2.4375 0.726563,-1.46484379 1.054688,-3.0117188 1.054688,-4.734375 z m 0,0"
         style="fill:#000000;fill-opacity:1;fill-rule:nonzero;stroke:none" />
    </g>
    <path
       id="path58"
       d="M 453.54895,-6.70787 V -33.30913"
       style="fill:none;stroke:#000000;stroke-width:0.79701;stroke-linecap:butt;stroke-linejoin:miter;stroke-miterlimit:10;stroke-dasharray:none;stroke-opacity:1"
       transform="matrix(1.3333333,0,0,-1.3333333,10.256,13.992)" />
    <path
       id="path59"
       d="M -1.55415,2.0722 C -1.42464,1.29512 0,0.1295 0.38852,0 0,-0.1295 -1.42464,-1.29512 -1.55415,-2.0722"
       style="fill:none;stroke:#000000;stroke-width:0.6376;stroke-linecap:round;stroke-linejoin:round;stroke-miterlimit:10;stroke-dasharray:none;stroke-opacity:1"
       transform="matrix(0,1.3333333,1.3333333,0,614.98793,58.404173)" />
    <g
       id="g59"
       aria-label="N(0,σ&#10;S&#10;I)"
       transform="matrix(1.3333333,0,0,1.3333333,574.74667,78.652)">
      <path
         id="path60"
         d="m 4.3941016,-8.2380234 c 0.2578125,0.75 0.5742187,1.828125 1.21875,3.5859375 0.9023437,2.4492187 1.3007812,3.328125 2.1796875,4.69921871 0.1992187,0.29296875 0.2109375,0.31640625 0.3398437,0.31640625 0.1992188,0 0.5039063,-0.17578125 0.65625,-0.29296875 0.1992188,-0.1875 0.2226563,-0.19921875 0.375,-0.90234375 0.8671872,-3.77343746 1.9570312,-7.69921876 2.2382812,-8.36718746 0.01172,-0.023437 0.304688,-0.5742188 2.0625,-0.5976563 0.292969,-0.011719 0.5625,-0.7734378 0.5625,-1.0898438 0,-0.234375 -0.08203,-0.234375 -0.28125,-0.234375 -1.441406,0 -2.085937,0.609375 -2.261719,0.796875 -0.398437,0.5156251 -0.738281,1.5585938 -1.40625,3.9609376 -0.4921872,1.828125 -0.9609372,3.6914062 -1.3945309,5.54296871 C 7.8862891,-2.0036484 7.4409766,-3.1403672 6.7612891,-4.9919297 5.9995703,-7.0309922 5.5308203,-8.5192734 5.1441016,-9.8083359 c -0.082031,-0.2929691 -0.09375,-0.3046871 -0.2226563,-0.3046871 -0.035156,0 -0.3164062,0 -0.7382812,0.3398433 -0.140625,0.1289063 -0.1523438,0.2578125 -0.1640625,0.421875 -0.4101563,3.8203125 -1.7578125,7.5820313 -2.1445313,8.2734375 -0.1054687,0.22265626 -0.28125,0.48046876 -0.5742187,0.48046876 -0.140625,0 -0.70312504,-0.0820313 -1.06640629,-0.42187496 -0.0820313,-0.058594 -0.10546875,-0.058594 -0.1171875,-0.058594 -0.234375,0 -0.52734375,0.71484376 -0.52734375,1.06640626 0,0.4453125 0.8671875,0.7265625 1.265625,0.7265625 0.92578124,0 1.65234374,-2.01562496 1.88671874,-2.68359376 0.9257813,-2.5898437 1.3710938,-4.734375 1.6523438,-6.269531 z m 0,0"
         style="fill:#000000;fill-opacity:1;fill-rule:nonzero;stroke:none" />
      <path
         id="path61"
         d="m 18.544492,3.4807266 c 0,-0.035156 0,-0.070312 -0.246094,-0.3046875 -1.429687,-1.453125 -2.238281,-3.82031254 -2.238281,-6.75 0,-2.7773438 0.679688,-5.1796875 2.34375,-6.8671871 0.140625,-0.128907 0.140625,-0.164063 0.140625,-0.199219 0,-0.09375 -0.07031,-0.117188 -0.128906,-0.117188 -0.1875,0 -1.359375,1.0312503 -2.0625,2.4375003 -0.738281,1.453125 -1.066406,2.9882813 -1.066406,4.7460938 0,1.2773437 0.199218,2.98828121 0.949218,4.52343746 0.84375,1.72265624 2.015625,2.64843754 2.179688,2.64843754 0.05859,0 0.128906,-0.023437 0.128906,-0.1171875 z m 0,0"
         style="fill:#000000;fill-opacity:1;fill-rule:nonzero;stroke:none" />
      <path
         id="path62"
         d="m 26.762266,-4.5700547 c 0,-1.3828125 0,-4.8398437 -3.386719,-4.8398437 -3.398438,0 -3.398438,3.4453125 -3.398438,4.8398437 0,1.3710938 0,4.74609376 3.386719,4.74609376 3.386719,0 3.398438,-3.32812496 3.398438,-4.74609376 z m -3.386719,4.26562501 c -0.457031,0 -0.808594,-0.1875 -1.089844,-0.48046875 -0.363281,-0.36328126 -0.585937,-0.59765626 -0.585937,-3.96093746 0,-1.0078125 0,-1.921875 0.117187,-2.671875 0.199219,-1.4179688 1.230469,-1.5234375 1.546875,-1.5234375 0.457031,0 1.347656,0.2226562 1.546875,1.4296875 0.128906,0.7265625 0.128906,1.8867187 0.128906,2.765625 0,3.3867187 -0.210937,3.5859375 -0.644531,4.01953121 -0.292969,0.28125 -0.679687,0.421875 -1.019531,0.421875 z m 0,0"
         style="fill:#000000;fill-opacity:1;fill-rule:nonzero;stroke:none" />
      <path
         id="path63"
         d="m 30.213438,0.05885156 c 0,-0.83203125 -0.28125,-1.45312496 -0.867188,-1.45312496 -0.457031,0 -0.691406,0.375 -0.691406,0.69140621 0,0.31640625 0.222656,0.7031250025 0.703125,0.7031250025 0.1875,0 0.351562,-0.0585937525 0.480469,-0.1875000025 0.02344,-0.0234375 0.04687,-0.0234375 0.05859,-0.0234375 0.02344,0 0.02344,0.19921875 0.02344,0.26953125 0,0.46875 -0.08203,1.40625004 -0.914063,2.33203124 -0.164062,0.1757813 -0.164062,0.2109375 -0.164062,0.234375 0,0.070312 0.08203,0.140625 0.152344,0.140625 0.105468,0 1.21875,-1.0546875 1.21875,-2.70703124 z M 41.000547,-5.4020859 c 0.1875,0 0.65625,0 0.65625,-0.46875 0,-0.3164063 -0.269531,-0.3164063 -0.527344,-0.3164063 h -3.175781 c -2.144531,0 -3.691406,2.4023438 -3.691406,4.0898438 0,1.21874996 0.785156,2.23828121 2.074218,2.23828121 1.6875,0 3.539063,-1.81640621 3.539063,-3.97265621 0,-0.5625 -0.128906,-1.1015625 -0.46875,-1.5703125 z m -4.652344,5.26171871 c -0.726562,0 -1.253906,-0.5625 -1.253906,-1.54687501 0,-0.8671875 0.515625,-3.7148437 2.613281,-3.7148437 0.621094,0 1.3125,0.2929687 1.3125,1.40625 0,0.4921875 -0.234375,1.6992187 -0.738281,2.53125 -0.515625,0.84374996 -1.289063,1.32421871 -1.933594,1.32421871 z m 0,0"
         style="fill:#000000;fill-opacity:1;fill-rule:nonzero;stroke:none" />
      <path
         id="path64"
         d="m 48.116758,-4.7751328 c 0,-0.023437 -0.01172,-0.09375 -0.105469,-0.09375 -0.04687,0 -0.05859,0.011719 -0.175781,0.140625 l -0.480469,0.5742187 c -0.257812,-0.46875 -0.773437,-0.7148437 -1.429687,-0.7148437 -1.265625,0 -2.460938,1.1367187 -2.460938,2.34375 0,0.8085937 0.527344,1.265625 1.042969,1.4179687 l 1.066406,0.28125004 c 0.363281,0.0820313 0.914063,0.234375 0.914063,1.0546875 0,0.89062496 -0.820313,1.82812496 -1.792969,1.82812496 -0.644531,0 -1.746094,-0.2109375 -1.746094,-1.45312496 0,-0.234375 0.04687,-0.48046875 0.05859,-0.5390625 0.01172,-0.03515625 0.02344,-0.046875 0.02344,-0.0703125 0,-0.09375 -0.07031,-0.10546875 -0.117187,-0.10546875 -0.05859,0 -0.07031,0.01171875 -0.105469,0.03515625 -0.03516,0.046875 -0.597656,2.32031246 -0.597656,2.34374996 0,0.058594 0.04687,0.1054688 0.117187,0.1054688 0.04687,0 0.05859,-0.011719 0.175782,-0.1523438 l 0.492187,-0.5742187 c 0.421875,0.5859375 1.101563,0.7265625 1.675781,0.7265625 1.359375,0 2.53125,-1.3242188 2.53125,-2.56640626 0,-0.6796875 -0.339843,-1.01953124 -0.492187,-1.16015624 -0.222656,-0.234375 -0.375,-0.2695313 -1.265625,-0.5039063 -0.210938,-0.058594 -0.574219,-0.1523437 -0.65625,-0.1757812 -0.269531,-0.09375 -0.609375,-0.375 -0.609375,-0.9023438 0,-0.8085937 0.796875,-1.6523437 1.734375,-1.6523437 0.832031,0 1.441406,0.421875 1.441406,1.5351562 0,0.3164063 -0.04687,0.5039063 -0.04687,0.5625 0,0.011719 0,0.09375 0.128906,0.09375 0.09375,0 0.105469,-0.023437 0.140625,-0.1992187 z m 0,0"
         style="fill:#000000;fill-opacity:1;fill-rule:nonzero;stroke:none" />
      <path
         id="path65"
         d="m 52.824766,-9.2223984 h 1.605468 v -0.6210938 c -0.515625,0.035156 -1.957031,0.035156 -2.554687,0.035156 -0.609375,0 -2.039063,0 -2.554688,-0.035156 v 0.6210938 h 1.605469 v 8.60156246 H 49.320859 V 2.578125e-4 C 49.836484,-0.02317969 51.266172,-0.02317969 51.875547,-0.02317969 c 0.597656,0 2.039062,0 2.554687,0.0234375025 V -0.62083594 h -1.605468 z m 0,0"
         style="fill:#000000;fill-opacity:1;fill-rule:nonzero;stroke:none" />
      <path
         id="path66"
         d="m 58.930234,-3.5739609 c 0,-1.0898438 -0.140625,-2.8710938 -0.949218,-4.5351563 -0.84375,-1.7109375 -2.015625,-2.6484378 -2.179688,-2.6484378 -0.05859,0 -0.128906,0.02344 -0.128906,0.117188 0,0.03516 0,0.07031 0.246094,0.316406 1.441406,1.4414063 2.238281,3.8085938 2.238281,6.7382813 0,2.77734376 -0.667969,5.1796875 -2.332031,6.8671875 -0.152344,0.1289063 -0.152344,0.1640625 -0.152344,0.1992188 0,0.09375 0.07031,0.1171875 0.128906,0.1171875 0.1875,0 1.371094,-1.03125 2.074219,-2.4375 0.726562,-1.46484379 1.054687,-3.0117188 1.054687,-4.734375 z m 0,0"
         style="fill:#000000;fill-opacity:1;fill-rule:nonzero;stroke:none" />
    </g>
    <path
       id="path67"
       d="M 464.8875,-56.69362 V -84.33304"
       style="fill:none;stroke:#000000;stroke-width:0.79701;stroke-linecap:butt;stroke-linejoin:miter;stroke-miterlimit:10;stroke-dasharray:none;stroke-opacity:1"
       transform="matrix(1.3333333,0,0,-1.3333333,10.256,13.992)" />
    <path
       id="path68"
       d="M -1.55415,2.0722 C -1.42464,1.29512 0,0.1295 0.38852,0 0,-0.1295 -1.42464,-1.29512 -1.55415,-2.0722"
       style="fill:none;stroke:#000000;stroke-width:0.6376;stroke-linecap:round;stroke-linejoin:round;stroke-miterlimit:10;stroke-dasharray:none;stroke-opacity:1"
       transform="matrix(0,1.3333333,1.3333333,0,630.106,126.43605)" />
    <g
       id="g68"
       aria-label="t&#10;3&#10;(0,20)"
       transform="matrix(1.3333333,0,0,1.3333333,597.53733,146.68267)">
      <path
         id="path69"
         d="m 2.8841094,-5.7649297 h 1.3242187 c 0.2695313,0 0.4101563,0 0.4101563,-0.2578125 0,-0.1640625 -0.082031,-0.1640625 -0.375,-0.1640625 H 2.9895781 l 0.5273438,-2.0859375 c 0.058594,-0.1992187 0.058594,-0.234375 0.058594,-0.328125 0,-0.234375 -0.1875,-0.3632812 -0.375,-0.3632812 -0.1171875,0 -0.4453125,0.046875 -0.5625,0.5039062 l -0.5625,2.2734375 H 0.72785938 c -0.28125,0 -0.41015625,0 -0.41015625,0.28125 0,0.140625 0.09375,0.140625 0.375,0.140625 H 1.9700469 l -0.9492188,3.7851563 c -0.11718747,0.5039062 -0.16406247,0.6445312 -0.16406247,0.8320312 0,0.67968751 0.48046877,1.28906251 1.27734377,1.28906251 1.453125,0 2.2265625,-2.08593751 2.2265625,-2.19140621 0,-0.082031 -0.058594,-0.1289063 -0.140625,-0.1289063 -0.035156,0 -0.082031,0 -0.1171875,0.058594 -0.011719,0.011719 -0.023437,0.023437 -0.1289063,0.2578125 -0.3046875,0.7148437 -0.9609375,1.72265621 -1.7929687,1.72265621 -0.4335938,0 -0.4570313,-0.36328125 -0.4570313,-0.6796875 0,-0.0117188 0,-0.28125001 0.046875,-0.45703121 z m 0,0"
         style="fill:#000000;fill-opacity:1;fill-rule:nonzero;stroke:none" />
      <path
         id="path70"
         d="m 7.9671172,-1.3528203 c 0.8085937,-0.2695313 1.3945312,-0.9726563 1.3945312,-1.7578125 0,-0.8203125 -0.8789062,-1.3710938 -1.8398437,-1.3710938 -1.0078125,0 -1.7578125,0.5976563 -1.7578125,1.3476563 0,0.3398437 0.2109375,0.5273437 0.5039062,0.5273437 0.3046875,0 0.5039063,-0.2226562 0.5039063,-0.515625 0,-0.4921875 -0.46875,-0.4921875 -0.609375,-0.4921875 0.3046875,-0.4921875 0.9609375,-0.6210937 1.3242187,-0.6210937 0.4101563,0 0.9492188,0.2226562 0.9492188,1.1132812 0,0.1289063 -0.011719,0.703125 -0.2695313,1.1367188 -0.3046875,0.4804687 -0.6445312,0.515625 -0.890625,0.515625 -0.082031,0.011719 -0.3164062,0.035156 -0.3867187,0.035156 -0.082031,0.011719 -0.1523438,0.023437 -0.1523438,0.1171875 0,0.1171875 0.070312,0.1171875 0.234375,0.1171875 h 0.4453125 c 0.8085938,0 1.1835938,0.66796879 1.1835938,1.65234379 0,1.34765621 -0.6914063,1.64062501 -1.125,1.64062501 -0.4335938,0 -1.171875,-0.1757813 -1.5234375,-0.7617188 0.3515625,0.058594 0.65625,-0.1640625 0.65625,-0.53906246 0,-0.36328125 -0.2695313,-0.5625 -0.5625,-0.5625 -0.234375,0 -0.5507813,0.140625 -0.5507813,0.57421875 0,0.91406251 0.9257813,1.57031251 2.0039063,1.57031251 1.21875,0 2.1210937,-0.9140625 2.1210937,-1.92187501 0,-0.8203125 -0.6210937,-1.59374999 -1.6523437,-1.80468729 z m 0,0"
         style="fill:#000000;fill-opacity:1;fill-rule:nonzero;stroke:none" />
      <path
         id="path71"
         d="m 15.215164,3.4811641 c 0,-0.035156 0,-0.070312 -0.246094,-0.3046875 -1.429687,-1.453125 -2.238281,-3.82031254 -2.238281,-6.75 0,-2.7773438 0.679688,-5.1796875 2.34375,-6.8671876 0.140625,-0.128906 0.140625,-0.164062 0.140625,-0.199219 0,-0.09375 -0.07031,-0.117187 -0.128906,-0.117187 -0.1875,0 -1.359375,1.0312498 -2.0625,2.4374998 -0.738281,1.453125 -1.066406,2.9882813 -1.066406,4.7460938 0,1.2773437 0.199218,2.98828121 0.949218,4.52343746 0.84375,1.72265624 2.015625,2.64843754 2.179688,2.64843754 0.05859,0 0.128906,-0.023437 0.128906,-0.1171875 z m 7.22168,-8.0742188 c 0,-1.1835937 -0.07031,-2.34375 -0.585938,-3.4335937 -0.585937,-1.1953125 -1.617187,-1.5117188 -2.320312,-1.5117188 -0.832031,0 -1.851563,0.421875 -2.378906,1.6054688 -0.410157,0.9023437 -0.550782,1.7929687 -0.550782,3.3398437 0,1.3945313 0.105469,2.4375 0.621094,3.4570313 0.5625,1.08984371 1.546875,1.44140621 2.296875,1.44140621 1.242188,0 1.957031,-0.75 2.378906,-1.58203121 0.515625,-1.078125 0.539063,-2.484375 0.539063,-3.3164063 z m -2.917969,4.60546876 c -0.46875,0 -1.394531,-0.2578125 -1.664062,-1.81640626 -0.164063,-0.8671875 -0.164063,-1.9570312 -0.164063,-2.953125 0,-1.1835937 0,-2.2382812 0.234375,-3.09375 0.246094,-0.9609375 0.972656,-1.3945312 1.59375,-1.3945312 0.539063,0 1.371094,0.328125 1.640625,1.5585937 0.1875,0.8203125 0.1875,1.9453125 0.1875,2.9296875 0,0.9609375 0,2.0507813 -0.152344,2.9179688 -0.269531,1.58203121 -1.183593,1.85156246 -1.675781,1.85156246 z m 0,0"
         style="fill:#000000;fill-opacity:1;fill-rule:nonzero;stroke:none" />
      <path
         id="path72"
         d="m 25.841141,0.05928906 c 0,-0.83203125 -0.28125,-1.45312496 -0.867188,-1.45312496 -0.457031,0 -0.691406,0.375 -0.691406,0.69140621 0,0.31640625 0.222656,0.7031250025 0.703125,0.7031250025 0.1875,0 0.351562,-0.0585937525 0.480469,-0.1875000025 0.02344,-0.0234375 0.04687,-0.0234375 0.05859,-0.0234375 0.02344,0 0.02344,0.19921875 0.02344,0.26953125 0,0.46875 -0.08203,1.40625004 -0.914063,2.33203124 -0.164062,0.1757813 -0.164062,0.2109375 -0.164062,0.234375 0,0.070312 0.08203,0.140625 0.152344,0.140625 0.105468,0 1.21875,-1.0546875 1.21875,-2.70703124 z m 0,0"
         style="fill:#000000;fill-opacity:1;fill-rule:nonzero;stroke:none" />
      <path
         id="path73"
         d="m 35.652664,-2.4133672 h -0.316406 c -0.04687,0.2460938 -0.164063,1.03125 -0.304688,1.265625 -0.105468,0.1289063 -0.914062,0.1289063 -1.347656,0.1289063 h -2.660156 c 0.386719,-0.328125 1.265625,-1.2421875 1.640625,-1.59375 2.179687,-2.0039063 2.988281,-2.7539063 2.988281,-4.171875 0,-1.6523438 -1.3125,-2.7539063 -2.976562,-2.7539063 -1.664063,0 -2.636719,1.4179688 -2.636719,2.6484375 0,0.7382813 0.632812,0.7382813 0.679687,0.7382813 0.292969,0 0.667969,-0.2109375 0.667969,-0.6796875 0,-0.3984375 -0.269531,-0.6679688 -0.667969,-0.6679688 -0.140625,0 -0.164062,0 -0.210937,0.011719 0.28125,-0.9726563 1.054687,-1.6289063 1.980469,-1.6289063 1.21875,0 1.96875,1.0078125 1.96875,2.3320313 0,1.21875 -0.703125,2.2851562 -1.523438,3.1992187 l -2.894531,3.24609376 V 6.953125e-4 h 5.238281 z m 7.130859,-2.1796875 c 0,-1.1835937 -0.07031,-2.34375 -0.585937,-3.4335937 -0.585938,-1.1953125 -1.617188,-1.5117188 -2.320313,-1.5117188 -0.832031,0 -1.851562,0.421875 -2.378906,1.6054688 -0.410156,0.9023437 -0.550781,1.7929687 -0.550781,3.3398437 0,1.3945313 0.105469,2.4375 0.621094,3.4570313 0.5625,1.08984371 1.546875,1.44140621 2.296875,1.44140621 1.242187,0 1.957031,-0.75 2.378906,-1.58203121 0.515625,-1.078125 0.539062,-2.484375 0.539062,-3.3164063 z m -2.917968,4.60546876 c -0.46875,0 -1.394532,-0.2578125 -1.664063,-1.81640626 -0.164062,-0.8671875 -0.164062,-1.9570312 -0.164062,-2.953125 0,-1.1835937 0,-2.2382812 0.234375,-3.09375 0.246093,-0.9609375 0.972656,-1.3945312 1.59375,-1.3945312 0.539062,0 1.371093,0.328125 1.640625,1.5585937 0.1875,0.8203125 0.1875,1.9453125 0.1875,2.9296875 0,0.9609375 0,2.0507813 -0.152344,2.9179688 -0.269531,1.58203121 -1.183594,1.85156246 -1.675781,1.85156246 z m 7.561523,-3.58593746 c 0,-1.0898438 -0.140625,-2.8710938 -0.949219,-4.5351563 -0.84375,-1.7109375 -2.015625,-2.6484373 -2.179687,-2.6484373 -0.05859,0 -0.128906,0.02344 -0.128906,0.117187 0,0.03516 0,0.07031 0.246093,0.316407 1.441407,1.4414058 2.238282,3.8085933 2.238282,6.7382808 0,2.77734376 -0.667969,5.1796875 -2.332032,6.8671875 -0.152343,0.1289063 -0.152343,0.1640625 -0.152343,0.1992188 0,0.09375 0.07031,0.1171875 0.128906,0.1171875 0.1875,0 1.371094,-1.03125 2.074219,-2.4375 0.726562,-1.46484379 1.054687,-3.0117188 1.054687,-4.734375 z m 0,0"
         style="fill:#000000;fill-opacity:1;fill-rule:nonzero;stroke:none" />
    </g>
    <path
       id="path74"
       d="M 544.25906,-6.70787 V -33.30913"
       style="fill:none;stroke:#000000;stroke-width:0.79701;stroke-linecap:butt;stroke-linejoin:miter;stroke-miterlimit:10;stroke-dasharray:none;stroke-opacity:1"
       transform="matrix(1.3333333,0,0,-1.3333333,10.256,13.992)" />
    <path
       id="path75"
       d="M -1.55415,2.0722 C -1.42464,1.29512 0,0.1295 0.38852,0 0,-0.1295 -1.42464,-1.29512 -1.55415,-2.0722"
       style="fill:none;stroke:#000000;stroke-width:0.6376;stroke-linecap:round;stroke-linejoin:round;stroke-miterlimit:10;stroke-dasharray:none;stroke-opacity:1"
       transform="matrix(0,1.3333333,1.3333333,0,735.93475,58.404173)" />
    <g
       id="g75"
       aria-label="N(0,σ&#10;R&#10;I)"
       transform="matrix(1.3333333,0,0,1.3333333,695.05333,78.652)">
      <path
         id="path76"
         d="m 4.3955469,-8.2380234 c 0.2578125,0.75 0.5742187,1.828125 1.21875,3.5859375 0.9023437,2.4492187 1.3007812,3.328125 2.1796875,4.69921871 0.1992187,0.29296875 0.2109375,0.31640625 0.3398437,0.31640625 0.1992188,0 0.5039063,-0.17578125 0.65625,-0.29296875 0.1992188,-0.1875 0.2226563,-0.19921875 0.375,-0.90234375 0.8671879,-3.77343746 1.9570309,-7.69921876 2.2382809,-8.36718746 0.01172,-0.023437 0.304688,-0.5742188 2.0625,-0.5976563 0.292969,-0.011719 0.5625,-0.7734378 0.5625,-1.0898438 0,-0.234375 -0.08203,-0.234375 -0.28125,-0.234375 -1.441406,0 -2.085937,0.609375 -2.261718,0.796875 -0.398438,0.5156251 -0.738282,1.5585938 -1.40625,3.9609376 -0.4921879,1.828125 -0.9609379,3.6914062 -1.3945316,5.54296871 C 7.8877344,-2.0036484 7.4424219,-3.1403672 6.7627344,-4.9919297 6.0010156,-7.0309922 5.5322656,-8.5192734 5.1455469,-9.8083359 c -0.082031,-0.2929691 -0.09375,-0.3046871 -0.2226563,-0.3046871 -0.035156,0 -0.3164062,0 -0.7382812,0.3398433 -0.140625,0.1289063 -0.1523438,0.2578125 -0.1640625,0.421875 -0.4101563,3.8203125 -1.7578125,7.5820313 -2.1445313,8.2734375 -0.1054687,0.22265626 -0.28125,0.48046876 -0.5742187,0.48046876 -0.140625,0 -0.70312503,-0.0820313 -1.06640628,-0.42187496 -0.0820313,-0.058594 -0.10546875,-0.058594 -0.1171875,-0.058594 -0.234375,0 -0.52734375,0.71484376 -0.52734375,1.06640626 0,0.4453125 0.8671875,0.7265625 1.265625,0.7265625 0.92578123,0 1.65234373,-2.01562496 1.88671873,-2.68359376 0.9257813,-2.5898437 1.3710938,-4.734375 1.6523438,-6.269531 z m 0,0"
         style="fill:#000000;fill-opacity:1;fill-rule:nonzero;stroke:none" />
      <path
         id="path77"
         d="m 18.543008,3.4807266 c 0,-0.035156 0,-0.070312 -0.246094,-0.3046875 -1.429687,-1.453125 -2.238281,-3.82031254 -2.238281,-6.75 0,-2.7773438 0.679687,-5.1796875 2.34375,-6.8671871 0.140625,-0.128907 0.140625,-0.164063 0.140625,-0.199219 0,-0.09375 -0.07031,-0.117188 -0.128906,-0.117188 -0.1875,0 -1.359375,1.0312503 -2.0625,2.4375003 -0.738282,1.453125 -1.066407,2.9882813 -1.066407,4.7460938 0,1.2773437 0.199219,2.98828121 0.949219,4.52343746 0.84375,1.72265624 2.015625,2.64843754 2.179688,2.64843754 0.05859,0 0.128906,-0.023437 0.128906,-0.1171875 z m 0,0"
         style="fill:#000000;fill-opacity:1;fill-rule:nonzero;stroke:none" />
      <path
         id="path78"
         d="m 26.760781,-4.5700547 c 0,-1.3828125 0,-4.8398437 -3.386719,-4.8398437 -3.398437,0 -3.398437,3.4453125 -3.398437,4.8398437 0,1.3710938 0,4.74609376 3.386719,4.74609376 3.386718,0 3.398437,-3.32812496 3.398437,-4.74609376 z m -3.386719,4.26562501 c -0.457031,0 -0.808593,-0.1875 -1.089843,-0.48046875 -0.363282,-0.36328126 -0.585938,-0.59765626 -0.585938,-3.96093746 0,-1.0078125 0,-1.921875 0.117188,-2.671875 0.199218,-1.4179688 1.230468,-1.5234375 1.546875,-1.5234375 0.457031,0 1.347656,0.2226562 1.546875,1.4296875 0.128906,0.7265625 0.128906,1.8867187 0.128906,2.765625 0,3.3867187 -0.210938,3.5859375 -0.644531,4.01953121 -0.292969,0.28125 -0.679688,0.421875 -1.019532,0.421875 z m 0,0"
         style="fill:#000000;fill-opacity:1;fill-rule:nonzero;stroke:none" />
      <path
         id="path79"
         d="m 30.214883,0.05885156 c 0,-0.83203125 -0.28125,-1.45312496 -0.867188,-1.45312496 -0.457031,0 -0.691406,0.375 -0.691406,0.69140621 0,0.31640625 0.222656,0.7031250025 0.703125,0.7031250025 0.1875,0 0.351563,-0.0585937525 0.480469,-0.1875000025 0.02344,-0.0234375 0.04687,-0.0234375 0.05859,-0.0234375 0.02344,0 0.02344,0.19921875 0.02344,0.26953125 0,0.46875 -0.08203,1.40625004 -0.914062,2.33203124 -0.164063,0.1757813 -0.164063,0.2109375 -0.164063,0.234375 0,0.070312 0.08203,0.140625 0.152344,0.140625 0.105469,0 1.21875,-1.0546875 1.21875,-2.70703124 z M 40.999062,-5.4020859 c 0.1875,0 0.65625,0 0.65625,-0.46875 0,-0.3164063 -0.269531,-0.3164063 -0.527343,-0.3164063 h -3.175782 c -2.144531,0 -3.691406,2.4023438 -3.691406,4.0898438 0,1.21874996 0.785156,2.23828121 2.074219,2.23828121 1.6875,0 3.539062,-1.81640621 3.539062,-3.97265621 0,-0.5625 -0.128906,-1.1015625 -0.46875,-1.5703125 z m -4.652343,5.26171871 c -0.726563,0 -1.253907,-0.5625 -1.253907,-1.54687501 0,-0.8671875 0.515625,-3.7148437 2.613282,-3.7148437 0.621093,0 1.3125,0.2929687 1.3125,1.40625 0,0.4921875 -0.234375,1.6992187 -0.738282,2.53125 -0.515625,0.84374996 -1.289062,1.32421871 -1.933593,1.32421871 z m 0,0"
         style="fill:#000000;fill-opacity:1;fill-rule:nonzero;stroke:none" />
      <path
         id="path80"
         d="m 45.43168,-3.9665391 c 0.05859,-0.234375 0.08203,-0.3398437 0.28125,-0.3632812 0.08203,-0.011719 0.398437,-0.011719 0.597656,-0.011719 0.714844,0 1.816406,0 1.816406,0.984375 0,0.3398438 -0.152344,1.0195313 -0.550781,1.4179688 -0.257813,0.2578125 -0.785156,0.5742187 -1.675781,0.5742187 h -1.113282 z m 1.429687,2.7304688 c 1.007813,-0.2226563 2.191406,-0.9140625 2.191406,-1.921875 0,-0.8554688 -0.890625,-1.5 -2.203125,-1.5 h -2.835937 c -0.199219,0 -0.292969,0 -0.292969,0.1992187 0,0.1171875 0.09375,0.1171875 0.28125,0.1171875 0.02344,0 0.210938,0 0.386719,0.011719 0.175781,0.023437 0.257812,0.035156 0.257812,0.1640625 0,0.035156 0,0.070312 -0.03516,0.1875 L 43.27543,1.3772109 c -0.09375,0.3867188 -0.117188,0.46875 -0.902344,0.46875 -0.175781,0 -0.269531,0 -0.269531,0.1992188 0,0.1054687 0.117187,0.1054687 0.140625,0.1054687 0.28125,0 0.972656,-0.035156 1.253906,-0.035156 0.28125,0 0.984375,0.035156 1.265625,0.035156 0.08203,0 0.199219,0 0.199219,-0.1992187 0,-0.1054688 -0.09375,-0.1054688 -0.28125,-0.1054688 -0.363282,0 -0.644532,0 -0.644532,-0.1875 0,-0.058594 0.01172,-0.1054687 0.02344,-0.1640625 l 0.65625,-2.6367187 h 1.195312 c 0.902344,0 1.078125,0.55078124 1.078125,0.90234374 0,0.15234375 -0.08203,0.45703125 -0.140625,0.69140625 -0.07031,0.26953125 -0.152343,0.64453121 -0.152343,0.84375001 0,1.078125 1.195312,1.078125 1.324218,1.078125 0.84375,0 1.195313,-1.0078125 1.195313,-1.1484375 0,-0.1171875 -0.117188,-0.1171875 -0.117188,-0.1171875 -0.09375,0 -0.117187,0.070312 -0.128906,0.140625 -0.257812,0.7382812 -0.679687,0.9023437 -0.914062,0.9023437 -0.328125,0 -0.398438,-0.2226562 -0.398438,-0.609375 0,-0.3046875 0.05859,-0.82031246 0.105469,-1.13671871 0.01172,-0.140625 0.03516,-0.328125 0.03516,-0.46875 0,-0.76171875 -0.667969,-1.07812499 -0.9375,-1.17187499 z m 0,0"
         style="fill:#000000;fill-opacity:1;fill-rule:nonzero;stroke:none" />
      <path
         id="path81"
         d="m 53.784219,-9.2223984 h 1.605468 v -0.6210938 c -0.515625,0.035156 -1.957031,0.035156 -2.554687,0.035156 -0.609375,0 -2.039063,0 -2.554688,-0.035156 v 0.6210938 h 1.605469 v 8.60156246 H 50.280312 V 2.578125e-4 C 50.795937,-0.02317969 52.225625,-0.02317969 52.835,-0.02317969 c 0.597656,0 2.039062,0 2.554687,0.0234375025 V -0.62083594 h -1.605468 z m 0,0"
         style="fill:#000000;fill-opacity:1;fill-rule:nonzero;stroke:none" />
      <path
         id="path82"
         d="m 59.886758,-3.5739609 c 0,-1.0898438 -0.140625,-2.8710938 -0.949219,-4.5351563 -0.84375,-1.7109375 -2.015625,-2.6484378 -2.179687,-2.6484378 -0.05859,0 -0.128907,0.02344 -0.128907,0.117188 0,0.03516 0,0.07031 0.246094,0.316406 1.441406,1.4414063 2.238281,3.8085938 2.238281,6.7382813 0,2.77734376 -0.667968,5.1796875 -2.332031,6.8671875 -0.152344,0.1289063 -0.152344,0.1640625 -0.152344,0.1992188 0,0.09375 0.07031,0.1171875 0.128907,0.1171875 0.1875,0 1.371093,-1.03125 2.074218,-2.4375 0.726563,-1.46484379 1.054688,-3.0117188 1.054688,-4.734375 z m 0,0"
         style="fill:#000000;fill-opacity:1;fill-rule:nonzero;stroke:none" />
    </g>
    <path
       id="path83"
       d="M 555.59761,-56.69362 V -84.33304"
       style="fill:none;stroke:#000000;stroke-width:0.79701;stroke-linecap:butt;stroke-linejoin:miter;stroke-miterlimit:10;stroke-dasharray:none;stroke-opacity:1"
       transform="matrix(1.3333333,0,0,-1.3333333,10.256,13.992)" />
    <path
       id="path84"
       d="M -1.55415,2.0722 C -1.42464,1.29512 0,0.1295 0.38852,0 0,-0.1295 -1.42464,-1.29512 -1.55415,-2.0722"
       style="fill:none;stroke:#000000;stroke-width:0.6376;stroke-linecap:round;stroke-linejoin:round;stroke-miterlimit:10;stroke-dasharray:none;stroke-opacity:1"
       transform="matrix(0,1.3333333,1.3333333,0,751.05281,126.43605)" />
    <g
       id="g84"
       aria-label="t&#10;3&#10;(0,20)"
       transform="matrix(1.3333333,0,0,1.3333333,718.48133,146.68267)">
      <path
         id="path85"
         d="m 2.8821641,-5.7649297 h 1.3242187 c 0.2695313,0 0.4101563,0 0.4101563,-0.2578125 0,-0.1640625 -0.082031,-0.1640625 -0.375,-0.1640625 H 2.9876328 l 0.5273438,-2.0859375 c 0.058594,-0.1992187 0.058594,-0.234375 0.058594,-0.328125 0,-0.234375 -0.1875,-0.3632812 -0.375,-0.3632812 -0.1171875,0 -0.4453125,0.046875 -0.5625,0.5039062 l -0.5625,2.2734375 H 0.72591406 c -0.28125,0 -0.41015625,0 -0.41015625,0.28125 0,0.140625 0.09375,0.140625 0.375,0.140625 H 1.9681016 l -0.9492188,3.7851563 c -0.11718749,0.5039062 -0.16406249,0.6445312 -0.16406249,0.8320312 0,0.67968751 0.48046879,1.28906251 1.27734379,1.28906251 1.453125,0 2.2265625,-2.08593751 2.2265625,-2.19140621 0,-0.082031 -0.058594,-0.1289063 -0.140625,-0.1289063 -0.035156,0 -0.082031,0 -0.1171875,0.058594 -0.011719,0.011719 -0.023437,0.023437 -0.1289063,0.2578125 -0.3046875,0.7148437 -0.9609375,1.72265621 -1.7929687,1.72265621 -0.4335938,0 -0.4570313,-0.36328125 -0.4570313,-0.6796875 0,-0.0117188 0,-0.28125001 0.046875,-0.45703121 z m 0,0"
         style="fill:#000000;fill-opacity:1;fill-rule:nonzero;stroke:none" />
      <path
         id="path86"
         d="m 7.9681016,-1.3528203 c 0.8085937,-0.2695313 1.3945312,-0.9726563 1.3945312,-1.7578125 0,-0.8203125 -0.8789062,-1.3710938 -1.8398437,-1.3710938 -1.0078125,0 -1.7578125,0.5976563 -1.7578125,1.3476563 0,0.3398437 0.2109375,0.5273437 0.5039062,0.5273437 0.3046875,0 0.5039063,-0.2226562 0.5039063,-0.515625 0,-0.4921875 -0.46875,-0.4921875 -0.609375,-0.4921875 0.3046875,-0.4921875 0.9609375,-0.6210937 1.3242187,-0.6210937 0.4101563,0 0.9492188,0.2226562 0.9492188,1.1132812 0,0.1289063 -0.011719,0.703125 -0.2695313,1.1367188 -0.3046875,0.4804687 -0.6445312,0.515625 -0.890625,0.515625 -0.082031,0.011719 -0.3164062,0.035156 -0.3867187,0.035156 -0.082031,0.011719 -0.1523438,0.023437 -0.1523438,0.1171875 0,0.1171875 0.070312,0.1171875 0.234375,0.1171875 h 0.4453125 c 0.8085938,0 1.1835938,0.66796879 1.1835938,1.65234379 0,1.34765621 -0.6914063,1.64062501 -1.125,1.64062501 -0.4335938,0 -1.171875,-0.1757813 -1.5234375,-0.7617188 0.3515625,0.058594 0.65625,-0.1640625 0.65625,-0.53906246 0,-0.36328125 -0.2695313,-0.5625 -0.5625,-0.5625 -0.234375,0 -0.5507813,0.140625 -0.5507813,0.57421875 0,0.91406251 0.9257813,1.57031251 2.0039063,1.57031251 1.21875,0 2.1210937,-0.9140625 2.1210937,-1.92187501 0,-0.8203125 -0.6210937,-1.59374999 -1.6523437,-1.80468729 z m 0,0"
         style="fill:#000000;fill-opacity:1;fill-rule:nonzero;stroke:none" />
      <path
         id="path87"
         d="m 15.216148,3.4811641 c 0,-0.035156 0,-0.070312 -0.246093,-0.3046875 -1.429688,-1.453125 -2.238282,-3.82031254 -2.238282,-6.75 0,-2.7773438 0.679688,-5.1796875 2.34375,-6.8671876 0.140625,-0.128906 0.140625,-0.164062 0.140625,-0.199219 0,-0.09375 -0.07031,-0.117187 -0.128906,-0.117187 -0.1875,0 -1.359375,1.0312498 -2.0625,2.4374998 -0.738281,1.453125 -1.066406,2.9882813 -1.066406,4.7460938 0,1.2773437 0.199219,2.98828121 0.949219,4.52343746 0.84375,1.72265624 2.015625,2.64843754 2.179687,2.64843754 0.05859,0 0.128906,-0.023437 0.128906,-0.1171875 z m 7.22168,-8.0742188 c 0,-1.1835937 -0.07031,-2.34375 -0.585937,-3.4335937 -0.585938,-1.1953125 -1.617188,-1.5117188 -2.320313,-1.5117188 -0.832031,0 -1.851562,0.421875 -2.378906,1.6054688 -0.410156,0.9023437 -0.550781,1.7929687 -0.550781,3.3398437 0,1.3945313 0.105468,2.4375 0.621093,3.4570313 0.5625,1.08984371 1.546875,1.44140621 2.296875,1.44140621 1.242188,0 1.957032,-0.75 2.378907,-1.58203121 0.515625,-1.078125 0.539062,-2.484375 0.539062,-3.3164063 z m -2.917969,4.60546876 c -0.46875,0 -1.394531,-0.2578125 -1.664062,-1.81640626 -0.164063,-0.8671875 -0.164063,-1.9570312 -0.164063,-2.953125 0,-1.1835937 0,-2.2382812 0.234375,-3.09375 0.246094,-0.9609375 0.972657,-1.3945312 1.59375,-1.3945312 0.539063,0 1.371094,0.328125 1.640625,1.5585937 0.1875,0.8203125 0.1875,1.9453125 0.1875,2.9296875 0,0.9609375 0,2.0507813 -0.152343,2.9179688 -0.269532,1.58203121 -1.183594,1.85156246 -1.675782,1.85156246 z m 0,0"
         style="fill:#000000;fill-opacity:1;fill-rule:nonzero;stroke:none" />
      <path
         id="path88"
         d="m 25.842125,0.05928906 c 0,-0.83203125 -0.28125,-1.45312496 -0.867187,-1.45312496 -0.457032,0 -0.691407,0.375 -0.691407,0.69140621 0,0.31640625 0.222657,0.7031250025 0.703125,0.7031250025 0.1875,0 0.351563,-0.0585937525 0.480469,-0.1875000025 0.02344,-0.0234375 0.04687,-0.0234375 0.05859,-0.0234375 0.02344,0 0.02344,0.19921875 0.02344,0.26953125 0,0.46875 -0.08203,1.40625004 -0.914062,2.33203124 -0.164063,0.1757813 -0.164063,0.2109375 -0.164063,0.234375 0,0.070312 0.08203,0.140625 0.152344,0.140625 0.105469,0 1.21875,-1.0546875 1.21875,-2.70703124 z m 0,0"
         style="fill:#000000;fill-opacity:1;fill-rule:nonzero;stroke:none" />
      <path
         id="path89"
         d="m 35.653648,-2.4133672 h -0.316406 c -0.04687,0.2460938 -0.164062,1.03125 -0.304687,1.265625 -0.105469,0.1289063 -0.914063,0.1289063 -1.347657,0.1289063 h -2.660156 c 0.386719,-0.328125 1.265625,-1.2421875 1.640625,-1.59375 2.179688,-2.0039063 2.988281,-2.7539063 2.988281,-4.171875 0,-1.6523438 -1.3125,-2.7539063 -2.976562,-2.7539063 -1.664063,0 -2.636719,1.4179688 -2.636719,2.6484375 0,0.7382813 0.632813,0.7382813 0.679688,0.7382813 0.292968,0 0.667968,-0.2109375 0.667968,-0.6796875 0,-0.3984375 -0.269531,-0.6679688 -0.667968,-0.6679688 -0.140625,0 -0.164063,0 -0.210938,0.011719 0.28125,-0.9726563 1.054688,-1.6289063 1.980469,-1.6289063 1.21875,0 1.96875,1.0078125 1.96875,2.3320313 0,1.21875 -0.703125,2.2851562 -1.523438,3.1992187 l -2.894531,3.24609376 V 6.953125e-4 h 5.238281 z m 7.13086,-2.1796875 c 0,-1.1835937 -0.07031,-2.34375 -0.585938,-3.4335937 -0.585937,-1.1953125 -1.617187,-1.5117188 -2.320312,-1.5117188 -0.832031,0 -1.851563,0.421875 -2.378906,1.6054688 -0.410157,0.9023437 -0.550782,1.7929687 -0.550782,3.3398437 0,1.3945313 0.105469,2.4375 0.621094,3.4570313 0.5625,1.08984371 1.546875,1.44140621 2.296875,1.44140621 1.242188,0 1.957031,-0.75 2.378906,-1.58203121 0.515625,-1.078125 0.539063,-2.484375 0.539063,-3.3164063 z m -2.917969,4.60546876 c -0.46875,0 -1.394531,-0.2578125 -1.664062,-1.81640626 -0.164063,-0.8671875 -0.164063,-1.9570312 -0.164063,-2.953125 0,-1.1835937 0,-2.2382812 0.234375,-3.09375 0.246094,-0.9609375 0.972656,-1.3945312 1.59375,-1.3945312 0.539063,0 1.371094,0.328125 1.640625,1.5585937 0.1875,0.8203125 0.1875,1.9453125 0.1875,2.9296875 0,0.9609375 0,2.0507813 -0.152344,2.9179688 -0.269531,1.58203121 -1.183593,1.85156246 -1.675781,1.85156246 z m 7.561524,-3.58593746 c 0,-1.0898438 -0.140625,-2.8710938 -0.949219,-4.5351563 -0.84375,-1.7109375 -2.015625,-2.6484373 -2.179688,-2.6484373 -0.05859,0 -0.128906,0.02344 -0.128906,0.117187 0,0.03516 0,0.07031 0.246094,0.316407 1.441406,1.4414058 2.238281,3.8085933 2.238281,6.7382808 0,2.77734376 -0.667969,5.1796875 -2.332031,6.8671875 -0.152344,0.1289063 -0.152344,0.1640625 -0.152344,0.1992188 0,0.09375 0.07031,0.1171875 0.128906,0.1171875 0.1875,0 1.371094,-1.03125 2.074219,-2.4375 0.726563,-1.46484379 1.054688,-3.0117188 1.054688,-4.734375 z m 0,0"
         style="fill:#000000;fill-opacity:1;fill-rule:nonzero;stroke:none" />
    </g>
  </g>
</svg>
